<?xml version="1.0" encoding="UTF-8"?>
<svg xmlns="http://www.w3.org/2000/svg" width="1920" height="1080" xmlns:xlink="http://www.w3.org/1999/xlink" viewBox="0 0 1920 1080">
  <defs>
    <clipPath id="clippath">
      <rect width="1920" height="320" rx="20" ry="20" style="fill: none;"/>
    </clipPath>
    <clipPath id="clippath-1">
      <rect y="290" width="1920" height="790" rx="20" ry="20" style="fill: none;"/>
    </clipPath>
    <clipPath id="clippath-2">
      <polygon id="RingMask" points="1055 485 1055 330 1210 330 1210 630 900 630 900 330 960 330 1055 485" style="fill: none;"/>
    </clipPath>
    <clipPath id="clippath-3">
      <rect x="1760" y="350" width="90" height="64" style="fill: none;"/>
    </clipPath>
    <clipPath id="clippath-4">
      <rect x="1710" y="350" width="90" height="64" style="fill: none;"/>
    </clipPath>
    <clipPath id="clippath-5">
      <rect x="1660" y="350" width="90" height="64" style="fill: none;"/>
    </clipPath>
    <clipPath id="clippath-6">
      <rect x="1610" y="350" width="90" height="64" style="fill: none;"/>
    </clipPath>
    <clipPath id="clippath-7">
      <rect x="1560" y="350" width="90" height="64" style="fill: none;"/>
    </clipPath>
    <clipPath id="clippath-8">
      <polygon points="440 375 250 485 250 705 440 815 630 705 630 485 440 375" style="fill: none;"/>
    </clipPath>
    <clipPath id="clippath-9">
      <rect x="746" y="364" width="18" height="18" style="fill: none;"/>
    </clipPath>
    <clipPath id="clippath-10">
      <rect x="746" y="338" width="18" height="16" style="fill: none;"/>
    </clipPath>
    <clipPath id="clippath-11">
      <rect x="683" y="334" width="50" height="50" style="fill: none;"/>
    </clipPath>
    <clipPath id="clippath-12">
      <rect x="40" y="396" width="39" height="39" style="fill: none;"/>
    </clipPath>
    <clipPath id="clippath-13">
      <rect x="40" y="431" width="39" height="39" style="fill: none;"/>
    </clipPath>
    <clipPath id="clippath-14">
      <rect x="40" y="466" width="39" height="39" style="fill: none;"/>
    </clipPath>
    <clipPath id="clippath-15">
      <rect x="40" y="501" width="39" height="39" style="fill: none;"/>
    </clipPath>
    <clipPath id="clippath-16">
      <rect x="40" y="536" width="39" height="39" style="fill: none;"/>
    </clipPath>
    <clipPath id="clippath-17">
      <rect x="40" y="571" width="39" height="39" style="fill: none;"/>
    </clipPath>
    <clipPath id="clippath-18">
      <rect x="40" y="606" width="39" height="39" style="fill: none;"/>
    </clipPath>
    <clipPath id="clippath-19">
      <rect x="40" y="641" width="39" height="39" style="fill: none;"/>
    </clipPath>
    <clipPath id="clippath-20">
      <rect x="40" y="676" width="39" height="39" style="fill: none;"/>
    </clipPath>
    <clipPath id="clippath-21">
      <rect x="40" y="711" width="39" height="39" style="fill: none;"/>
    </clipPath>
    <image id="image-1A" width="90" height="64" xlink:href="${mod1}"/>
    <image id="image-1B" width="90" height="64" xlink:href="${mod2}"/>
    <image id="image-1C" width="90" height="64" xlink:href="${mod3}"/>
    <image id="image-1D" width="90" height="64" xlink:href="${mod4}"/>
    <image id="image-1E" width="90" height="64" xlink:href="${mod5}"/>
    <image id="image-2" width="39" height="39" xlink:href="${star}"/>
  </defs>
  <g id="Banner">
    <rect width="1920" height="320" rx="20" ry="20" style="fill: #1c1719;"/>
    <g style="clip-path: url(#clippath);">
      <image width="1920" height="320" xlink:href="${banner}"/>
    </g>
    <rect width="1920" height="320" rx="20" ry="20" style="opacity: .2;"/>
  </g>
  <g id="Background">
    <rect y="290" width="1920" height="790" rx="20" ry="20" style="fill: #2a2226;"/>
    <g style="clip-path: url(#clippath-1);">
      <image width="1920" height="790" transform="translate(0 290)" xlink:href="${judge_background}"/>
    </g>
    <rect y="290" width="1920" height="790" rx="20" ry="20" style="opacity: .4;"/>
  </g>
  <g id="RBJudge_MapStatic">
    <rect id="RUBackground" x="880" y="770" width="1000" height="270" rx="20" ry="20" style="fill: #382e32;"/>
    <g id="RBRetryFailRRect">
      <rect id="BaseRRect" x="1440" y="1020" width="420" height="4" rx="2" ry="2" style="fill: #a1a1a1;"/>
      <rect id="FailRRect" x="1440" y="1020" width="266" height="4" rx="2" ry="2" style="fill: #ed6c9e;"/>
      <rect id="RetryRRect" x="1440" y="1020" width="224" height="4" rx="2" ry="2" style="fill: #f6d659;"/>
    </g>
    <g id="RBMapStatic">
    </g>
    <g id="JudgeRRects">
      <rect x="900" y="815" width="16" height="85" rx="8" ry="8" style="fill: #8dcff4;"/>
      <rect x="920" y="815" width="16" height="85" rx="8" ry="8" style="fill: #8dcff4;"/>
      <rect x="940" y="815" width="16" height="85" rx="8" ry="8" style="fill: #8dcff4;"/>
      <rect x="960" y="815" width="16" height="85" rx="8" ry="8" style="fill: #8dcff4;"/>
      <rect x="980" y="815" width="16" height="85" rx="8" ry="8" style="fill: #8dcff4;"/>
      <rect x="1000" y="815" width="16" height="85" rx="8" ry="8" style="fill: #8dcff4;"/>
      <rect x="1020" y="815" width="16" height="85" rx="8" ry="8" style="fill: #8dcff4;"/>
      <rect x="1040" y="815" width="16" height="85" rx="8" ry="8" style="fill: #8dcff4;"/>
      <rect x="1060" y="815" width="16" height="85" rx="8" ry="8" style="fill: #8dcff4;"/>
      <rect x="1080" y="815" width="16" height="85" rx="8" ry="8" style="fill: #8dcff4;"/>
      <rect x="1100" y="815" width="16" height="85" rx="8" ry="8" style="fill: #8dcff4;"/>
      <rect x="1120" y="815" width="16" height="85" rx="8" ry="8" style="fill: #8dcff4;"/>
      <rect x="1140" y="815" width="16" height="85" rx="8" ry="8" style="fill: #8dcff4;"/>
      <rect x="1160" y="815" width="16" height="85" rx="8" ry="8" style="fill: #8dcff4;"/>
      <rect x="1180" y="815" width="16" height="85" rx="8" ry="8" style="fill: #8dcff4;"/>
      <rect x="1200" y="815" width="16" height="85" rx="8" ry="8" style="fill: #8dcff4;"/>
      <rect x="1220" y="815" width="16" height="85" rx="8" ry="8" style="fill: #8dcff4;"/>
      <rect x="1240" y="815" width="16" height="85" rx="8" ry="8" style="fill: #8dcff4;"/>
      <rect x="1260" y="815" width="16" height="85" rx="8" ry="8" style="fill: #8dcff4;"/>
      <rect x="1280" y="815" width="16" height="85" rx="8" ry="8" style="fill: #8dcff4;"/>
      <rect x="1300" y="815" width="16" height="85" rx="8" ry="8" style="fill: #8dcff4;"/>
      <rect x="1320" y="815" width="16" height="85" rx="8" ry="8" style="fill: #8dcff4;"/>
      <rect x="1340" y="815" width="16" height="85" rx="8" ry="8" style="fill: #8dcff4;"/>
      <rect x="1360" y="815" width="16" height="85" rx="8" ry="8" style="fill: #8dcff4;"/>
      <rect x="1380" y="815" width="16" height="85" rx="8" ry="8" style="fill: #8dcff4;"/>
      <rect x="1400" y="815" width="16" height="85" rx="8" ry="8" style="fill: #8dcff4;"/>
    </g>
    <g id="RetryFailGraphArea">
      <rect x="900" y="930" width="520" height="90" style="fill: #d9e021;"/>
    </g>
    <g id="TitleText">
      <text transform="translate(1305.11 922.88)" style="fill: #a1a1a1; font-family: Torus-SemiBold, Torus; font-size: 18px; font-weight: 600;"><tspan x="0" y="0">r 44% // f 34%</tspan></text>
      <text transform="translate(1334.43 802.88)" style="fill: #a1a1a1; font-family: Torus-SemiBold, Torus; font-size: 18px; font-weight: 600;"><tspan x="0" y="0">Rating 9.8</tspan></text>
      <text transform="translate(899.5 922.63)" style="fill: #a1a1a1; font-family: Torus-SemiBold, Torus; font-size: 18px; font-weight: 600;"><tspan x="0" y="0">Retry &amp; Fail</tspan></text>
      <text transform="translate(900 802.88)" style="fill: #a1a1a1; font-family: Torus-SemiBold, Torus; font-size: 18px; font-weight: 600;"><tspan x="0" y="0">Judge &amp; Difficulty</tspan></text>
    </g>
  </g>
  <g id="RUStat">
    <rect id="RUBackground-2" data-name="RUBackground" x="880" y="330" width="1000" height="420" rx="20" ry="20" style="fill: #382e32;"/>
    <g id="LBPassStat">
      <image width="150" height="40" transform="translate(1060 690)" xlink:href="${judge_fc}"/>
      <image width="150" height="40" transform="translate(900 690)" xlink:href="${judge_nm}"/>
      <image width="150" height="40" transform="translate(1060 640)" xlink:href="${judge_cl}"/>
      <image width="150" height="40" transform="translate(900 640)" xlink:href="${judge_pl}"/>
    </g>
    <g id="LURank">
      <image id="ColoredCircle" width="210" height="210" transform="translate(950 380)" xlink:href="${colored_circle}"/>
      <g style="clip-path: url(#clippath-2);">
        <image width="270" height="270" transform="translate(920 350)" xlink:href="${colored_ring}"/>
      </g>
      <image id="Rank" width="114" height="144" transform="translate(998 413)" xlink:href="${score_rank}"/>
    </g>
    <g id="MUScore">
    </g>
    <g id="MMScoreIndex">
      <text transform="translate(1246.44 652.79)" style="fill: #fff; font-family: Torus-SemiBold, Torus; font-size: 30px; font-weight: 600;"><tspan x="0" y="0">0</tspan></text>
      <text transform="translate(1230.27 612.79)" style="fill: #fff; font-family: Torus-SemiBold, Torus; font-size: 30px; font-weight: 600;"><tspan x="0" y="0">50</tspan></text>
      <text transform="translate(1215.6 572.79)" style="fill: #fff; font-family: Torus-SemiBold, Torus; font-size: 30px; font-weight: 600;"><tspan x="0" y="0">100</tspan></text>
      <text transform="translate(1209.69 532.79)" style="fill: #fff; font-family: Torus-SemiBold, Torus; font-size: 30px; font-weight: 600;"><tspan x="0" y="0">200</tspan></text>
      <text transform="translate(1211.04 492.79)" style="fill: #fff; font-family: Torus-SemiBold, Torus; font-size: 30px; font-weight: 600;"><tspan x="0" y="0">300</tspan></text>
      <text transform="translate(1213.41 452.79)" style="fill: #fff; font-family: Torus-SemiBold, Torus; font-size: 30px; font-weight: 600;"><tspan x="0" y="0">320</tspan></text>
    </g>
    <g id="MRscoreStat">
      <text transform="translate(1792 652.79)" style="fill: #fff; font-family: Torus-SemiBold, Torus; font-size: 30px; font-weight: 600;"><tspan x="0" y="0">2</tspan></text>
      <text transform="translate(1792 612.79)" style="fill: #fff; font-family: Torus-SemiBold, Torus; font-size: 30px; font-weight: 600;"><tspan x="0" y="0">30</tspan></text>
      <text transform="translate(1792 572.79)" style="fill: #fff; font-family: Torus-SemiBold, Torus; font-size: 30px; font-weight: 600;"><tspan x="0" y="0">15</tspan></text>
      <text transform="translate(1792 532.79)" style="fill: #fff; font-family: Torus-SemiBold, Torus; font-size: 30px; font-weight: 600;"><tspan x="0" y="0">10</tspan></text>
      <text transform="translate(1792 492.79)" style="fill: #fff; font-family: Torus-SemiBold, Torus; font-size: 30px; font-weight: 600;"><tspan x="0" y="0">5</tspan></text>
      <text transform="translate(1792 452.79)" style="fill: #fff; font-family: Torus-SemiBold, Torus; font-size: 30px; font-weight: 600;"><tspan x="0" y="0">1611</tspan></text>
    </g>
    <g id="MMScoreRRect">
      <rect id="L1RRect" x="1280" y="430" width="${ss_judge_1_rrect_width}" height="28" rx="10" ry="10" style="fill: ${ss_judge_1_rrect_color};"/>
      <rect id="L2RRect" x="1280" y="470" width="500" height="28" rx="10" ry="10" style="fill: #8dcff4;"/>
      <rect id="L3RRect" x="1280" y="510" width="500" height="28" rx="10" ry="10" style="fill: #8dcff4;"/>
      <rect id="L4RRect" x="1280" y="550" width="500" height="28" rx="10" ry="10" style="fill: #8dcff4;"/>
      <rect id="L5RRect" x="1280" y="590" width="500" height="28" rx="10" ry="10" style="fill: #8dcff4;"/>
      <rect id="L6RRect" x="1280" y="630" width="500" height="28" rx="10" ry="10" style="fill: #8dcff4;"/>
    </g>
    <g id="MRScoreData">
    </g>
    <g id="RUMods">
      <g style="clip-path: url(#clippath-3);">
        <use transform="translate(1760 350)" xlink:href="#image-1A"/>
      </g>
      <g style="clip-path: url(#clippath-4);">
        <use transform="translate(1710 350)" xlink:href="#image-1C"/>
      </g>
      <g style="clip-path: url(#clippath-5);">
        <use transform="translate(1660 350)" xlink:href="#image-1B"/>
      </g>
      <g style="clip-path: url(#clippath-6);">
        <use transform="translate(1610 350)" xlink:href="#image-1D"/>
      </g>
      <g style="clip-path: url(#clippath-7);">
        <use transform="translate(1560 350)" xlink:href="#image-1E"/>
      </g>
    </g>
  </g>
  <g id="LMap">
    <g id="LBMapText">
    </g>
    <g id="LMMapCover">
      <g style="clip-path: url(#clippath-8);">
        <image width="380" height="440" transform="translate(250 375)" xlink:href="${map_background}"/>
      </g>
      <image id="Hexagon" width="420" height="450" transform="translate(230 370)" xlink:href="${map_hexagon}"/>
    </g>
    <g id="LUMapStatus">
      <g>
        <rect id="StarRRect" x="670" y="330" width="190" height="60" rx="20" ry="20" style="fill: #7ac943;"/>
      </g>
      <g>
        <rect id="StarRRect-2" data-name="StarRRect" x="670" y="330" width="190" height="60" rx="20" ry="20" style="fill: #382e32;"/>
      </g>
    </g>
    <g id="LUMapObject">
      <g style="clip-path: url(#clippath-9);">
        <image width="18" height="18" transform="translate(746 364)" xlink:href="${map_playcount}"/>
      </g>
      <g style="clip-path: url(#clippath-10);">
        <image width="18" height="16" transform="translate(746 338)" xlink:href="${map_favorite}"/>
      </g>
      <g style="clip-path: url(#clippath-11);">
        <image width="50" height="50" transform="translate(683 334)" xlink:href="${map_status}"/>
      </g>
    </g>
    <g id="LUStars">
      <g id="_1Star" data-name="1Star">
        <g style="clip-path: url(#clippath-12);">
          <use transform="translate(40 396)" xlink:href="#image-2"/>
        </g>
      </g>
      <g id="_2Star" data-name="2Star">
        <g style="clip-path: url(#clippath-13);">
          <use transform="translate(40 431)" xlink:href="#image-2"/>
        </g>
      </g>
      <g id="_3Star" data-name="3Star">
        <g style="clip-path: url(#clippath-14);">
          <use transform="translate(40 466)" xlink:href="#image-2"/>
        </g>
      </g>
      <g id="_4Star" data-name="4Star">
        <g style="clip-path: url(#clippath-15);">
          <use transform="translate(40 501)" xlink:href="#image-2"/>
        </g>
      </g>
      <g id="_5Star" data-name="5Star">
        <g style="clip-path: url(#clippath-16);">
          <use transform="translate(40 536)" xlink:href="#image-2"/>
        </g>
      </g>
      <g id="_6Star" data-name="6Star">
        <g style="clip-path: url(#clippath-17);">
          <use transform="translate(40 571)" xlink:href="#image-2"/>
        </g>
      </g>
      <g id="_7Star" data-name="7Star">
        <g style="clip-path: url(#clippath-18);">
          <use transform="translate(40 606)" xlink:href="#image-2"/>
        </g>
      </g>
      <g id="_8Star" data-name="8Star">
        <g style="clip-path: url(#clippath-19);">
          <use transform="translate(40 641)" xlink:href="#image-2"/>
        </g>
      </g>
      <g id="_9Star" data-name="9Star">
        <g style="clip-path: url(#clippath-20);">
          <use transform="translate(40 676)" xlink:href="#image-2"/>
        </g>
      </g>
      <g id="_10Star" data-name="10Star">
        <g style="clip-path: url(#clippath-21);">
          <use transform="translate(40 711)" xlink:href="#image-2"/>
        </g>
      </g>
    </g>
    <g id="LUCard">
      <rect id="StarRRect-3" data-name="StarRRect" x="40" y="330" width="190" height="60" rx="20" ry="20" style="fill: #382e32;"/>
    </g>
  </g>
  <g id="MainCard">
    <rect x="40" y="40" width="430" height="210" rx="20" ry="20" style="fill: #382e32;"/>
    <rect x="510" y="40" width="195" height="60" rx="15" ry="15" style="fill: #382e32;"/>
  </g>
  <g id="Index">
  </g>
</svg>