<?xml version="1.0" encoding="UTF-8"?>
<svg xmlns="http://www.w3.org/2000/svg" width="1920" height="1080" xmlns:xlink="http://www.w3.org/1999/xlink" viewBox="0 0 1920 1080">
  <defs>
    <clipPath id="clippath-PE-BR">
      <rect width="1920" height="320" rx="20" ry="20" style="fill: none;"/>
    </clipPath>
    <clipPath id="clippath-PE-BG">
      <rect y="290" width="1920" height="790" rx="20" ry="20" style="fill: none;"/>
    </clipPath>
    <clipPath id="clippath-PE-MC">
      <polygon points="440 375 250 485 250 705 440 815 630 705 630 485 440 375" style="fill: none;"/>
    </clipPath>
    <clipPath id="clippath-PE-PC">
      <rect x="746" y="364" width="18" height="18" style="fill: none;"/>
    </clipPath>
    <clipPath id="clippath-PE-FV">
      <rect x="746" y="338" width="18" height="16" style="fill: none;"/>
    </clipPath>
    <clipPath id="clippath-PE-ST">
      <rect x="683" y="334" width="50" height="50" style="fill: none;"/>
    </clipPath>
    <clipPath id="clippath-PE-R1">
      <rect x="40" y="396" width="39" height="39" style="fill: none;"/>
    </clipPath>
    <clipPath id="clippath-PE-R2">
      <rect x="40" y="431" width="39" height="39" style="fill: none;"/>
    </clipPath>
    <clipPath id="clippath-PE-R3">
      <rect x="40" y="466" width="39" height="39" style="fill: none;"/>
    </clipPath>
    <clipPath id="clippath-PE-R4">
      <rect x="40" y="501" width="39" height="39" style="fill: none;"/>
    </clipPath>
    <clipPath id="clippath-PE-R5">
      <rect x="40" y="536" width="39" height="39" style="fill: none;"/>
    </clipPath>
    <clipPath id="clippath-PE-R6">
      <rect x="40" y="571" width="39" height="39" style="fill: none;"/>
    </clipPath>
    <clipPath id="clippath-PE-R7">
      <rect x="40" y="606" width="39" height="39" style="fill: none;"/>
    </clipPath>
    <clipPath id="clippath-PE-R8">
      <rect x="40" y="641" width="39" height="39" style="fill: none;"/>
    </clipPath>
    <clipPath id="clippath-PE-R9">
      <rect x="40" y="676" width="39" height="39" style="fill: none;"/>
    </clipPath>
    <clipPath id="clippath-PE-R10">
      <rect x="40" y="711" width="39" height="39" style="fill: none;"/>
    </clipPath>
    <filter id="blur-PE-BG" height="110%" width="110%" x="-5%" y="-5%">
      <feGaussianBlur in="userSpaceOnUse" stdDeviation="5" result="blur"/>
    </filter>
  </defs>
  <g id="BannerBase">
    <rect width="1920" height="320" rx="20" ry="20" style="fill: #1c1719"/>
  </g>
  <g id="Banner">
    <g style="clip-path: url(#clippath-PE-BR);">
    </g>
  </g>
  <g id="Background">
    <rect y="290" width="1920" height="790" rx="20" ry="20" style="fill: #2a2226;"/>
    <g style="clip-path: url(#clippath-PE-BG);" filter="url(#blur-PGamma-BG)">
    </g>
  </g>
  <g id="RBJudge_MapStatic">
    <rect id="RBBackground" x="880" y="770" width="1000" height="270" rx="20" ry="20" style="fill: #382e32;"/>
    <rect id="RUBackground" x="880" y="330" width="1000" height="420" rx="20" ry="20" style="fill: #382e32;"/>
    <g id="RBRetryFailRRect">
    </g>
    <g id="RBMapStatic">
    </g>
    <g id="JudgeRRects">
    </g>
    <g id="RetryFailGraphArea">
      <rect x="900" y="930" width="520" height="90" style="fill: none;"/>
    </g>
    <g id="TitleText">
    </g>
  </g>
  <g id="RUStat">
    <g id="LBPassStat">
    </g>
    <g id="LURank">
    </g>
    <g id="MUScore">
    </g>
    <g id="MMScoreIndex">
    </g>
    <g id="MRscoreStat">
    </g>
    <g id="MMScoreRRect">
    </g>
    <g id="MRScoreData">
    </g>
    <g id="RUMods">
    </g>
  </g>
  <g id="LMap">
    <g id="LBMapText">
    </g>
    <g id="LMMapCover">
      <g style="clip-path: url(#clippath-PE-MC);">
      </g>
    </g>
    <g id="LUMapStatus">
      <g>
        <rect id="StarRRect" x="670" y="330" width="190" height="60" rx="20" ry="20" style="fill: #382e32;"/>
      </g>
    </g>
    <g id="LUMapObject">
      <g style="clip-path: url(#clippath-PE-ST);">
      </g>
    </g>
    <g id="LUStars">
    </g>
    <g id="LUCard">
      <rect id="StarRRect-3" x="40" y="330" width="190" height="60" rx="20" ry="20" style="fill: #382e32;"/>
    </g>
  </g>
  <g id="MainCard">
    <rect x="40" y="40" width="430" height="210" rx="20" ry="20" style="fill: none;"/>
    <rect x="510" y="40" width="195" height="60" rx="15" ry="15" style="fill: #382e32;"/>
  </g>
  <g id="Index">
  </g>
</svg>