<?xml version="1.0" encoding="UTF-8"?>
<svg xmlns="http://www.w3.org/2000/svg" width="1920" height="1080" xmlns:xlink="http://www.w3.org/1999/xlink" viewBox="0 0 1920 1080">
  <defs>
    <clipPath id="clippath-PD-1">
      <rect width="1920" height="320" rx="20" ry="20" style="fill: none;"/>
    </clipPath>
    <clipPath id="clippath-PD-2">
      <rect y="290" width="1920" height="790" rx="30" ry="30" style="fill: none;"/>
    </clipPath>
    <clipPath id="clippath-PD-3">
      <rect x="40" y="330" width="560" height="710" rx="20" ry="20" style="fill: none;"/>
    </clipPath>
    <filter id="inset-shadow-PD-4" height="150%" width="150%" x="-25%" y="-25%" filterUnits="userSpaceOnUse">
      <feFlood flood-color="#000"/>
      <feComposite in2="SourceGraphic" operator="out"/>
      <feMorphology operator="dilate" radius="15" />
      <feGaussianBlur in="userSpaceOnUse" stdDeviation="15" result="blur"/>
      <feComposite in2="SourceGraphic" operator="atop"/>
    </filter>
  </defs>
  <g id="Banner">
    <rect width="1920" height="320" rx="20" ry="20" style="fill: #1c1719;"/>
    <g style="clip-path: url(#clippath-PD-1);">
    </g>
  </g>
  <g id="Background">
    <rect y="290" width="1920" height="790" rx="30" ry="30" style="fill: #2a2226;"/>
    <g style="clip-path: url(#clippath-PD-2);">
    </g>
  </g>
  <g id="UserDataCard">
    <rect x="980" y="685" width="900" height="355" rx="20" ry="20" style="fill: #382e32;"/>
    <g id="LabelDR">
    </g>
    <g id="UserActivityR">
    </g>
    <g id="UserDataText">
      <text transform="translate(1000 725.795)" style="fill: #fff; font-family: Torus-SemiBold, Torus; font-size: 30px; font-weight: 600;"><tspan x="0" y="0">User Data</tspan></text>
    </g>
  </g>
  <g id="RankingCard">
    <rect x="980" y="330" width="900" height="335" rx="20" ry="20" style="fill: #382e32;"/>
    <g id="BPActivityR">
    </g>
    <g id="RankingGraph">
    </g>
    <g id="RankingText">
      <text id="Day3" transform="translate(1789.809 646.836)" style="fill: #fc2; font-family: Torus-SemiBold, Torus; font-size: 24px; font-weight: 600;"><tspan x="0" y="0">0d</tspan></text>
      <text id="Day2" transform="translate(1394.836 646.836)" style="fill: #fc2; font-family: Torus-SemiBold, Torus; font-size: 24px; font-weight: 600;"><tspan x="0" y="0">-45d</tspan></text>
      <text id="Day1" transform="translate(1040 646.836)" style="fill: #fc2; font-family: Torus-SemiBold, Torus; font-size: 24px; font-weight: 600;"><tspan x="0" y="0">-90d</tspan></text>
      <text transform="translate(1000 370.795)" style="fill: #fff; font-family: Torus-SemiBold, Torus; font-size: 30px; font-weight: 600;"><tspan x="0" y="0">Ranking</tspan></text>
    </g>
  </g>
  <g id="GradeCard">
    <rect x="620" y="880" width="340" height="160" rx="20" ry="20" style="fill: #382e32;"/>
    <g id="GradeText">
      <text transform="translate(635 915.795)" style="fill: #fff; font-family: Torus-SemiBold, Torus; font-size: 30px; font-weight: 600;"><tspan x="0" y="0">Grades</tspan></text>
    </g>
    <g id="GradeImage">
    </g>
  </g>
  <g id="BPCard">
    <rect x="620" y="685" width="340" height="175" rx="20" ry="20" style="fill: #382e32;"/>
    <g id="CardK">
    </g>
    <g id="BPText">
      <text transform="translate(635 720.795)" style="fill: #fff; font-family: Torus-SemiBold, Torus; font-size: 30px; font-weight: 600;"><tspan x="0" y="0">BPs</tspan></text>
    </g>
  </g>
  <g id="RecentCard">
    <rect x="620" y="330" width="340" height="335" rx="20" ry="20" style="fill: #382e32;"/>
    <g id="CardJBase">
      <rect x="635" y="570" width="310" height="80" rx="10" ry="10" style="fill: #54454c;"/>
      <rect x="635" y="475" width="310" height="80" rx="10" ry="10" style="fill: #54454c;"/>
      <rect x="635" y="380" width="310" height="80" rx="10" ry="10" style="fill: #54454c;"/>
    </g>
    <g id="CardJ">
    </g>
  </g>
  <g>
    <g id="RecentText">
      <text transform="translate(635 365.795)"
            style="fill: #fff; font-family: Torus-SemiBold, Torus; font-size: 30px; font-weight: 600;">
        <tspan x="0" y="0">Recents</tspan>
      </text>
    </g>
  </g>
  <g id="MascotCard">
   <g id="MascotBase">
    <rect x="40" y="330" width="560" height="710" rx="20" ry="20" style="fill: #46393f;"/>
   </g>
    <g id="Mascot">
      <g style="clip-path: url(#clippath-PD-3);" filter="url(#inset-shadow-PD-4)">
      </g>
    </g>
    <g id="MascotName">
    </g>
    <g id="Progress">
    </g>
    <g id="ProgressBase">
      <rect id="ProgressBaseR" x="60" y="1016" width="520" height="4" rx="2" ry="2" style="fill: #54454c;"/>
    </g>
    <g id="ProgressRRect">
    </g>
  </g>
  <g id="MainCard">
  </g>
  <g id="IndexBase">
    <rect x="510" y="40" width="195" height="60" rx="15" ry="15" style="fill: #382e32;"/>
  </g>
  <g id="Index">
  </g>
</svg>