<?xml version="1.0" encoding="UTF-8"?>
<svg xmlns="http://www.w3.org/2000/svg" width="1920" height="1080" xmlns:xlink="http://www.w3.org/1999/xlink" viewBox="0 0 1920 1080">
  <defs>
    <clipPath id="clippath-PE-BR">
      <rect width="1920" height="320" rx="20" ry="20" style="fill: none;"/>
    </clipPath>
    <clipPath id="clippath-PE-BG">
      <rect y="290" width="1920" height="790" rx="20" ry="20" style="fill: none;"/>
    </clipPath>
    <clipPath id="clippath-PE-CC">
      <polygon id="RingMask" points="1055 485 1055 330 1210 330 1210 630 900 630 900 330 960 330 1055 485" style="fill: none;"/>
    </clipPath>
    <clipPath id="clippath-PE-MC">
      <polygon points="440 375 250 485 250 705 440 815 630 705 630 485 440 375" style="fill: none;"/>
    </clipPath>
    <clipPath id="clippath-PE-PC">
      <rect x="746" y="364" width="18" height="18" style="fill: none;"/>
    </clipPath>
    <clipPath id="clippath-PE-FV">
      <rect x="746" y="338" width="18" height="16" style="fill: none;"/>
    </clipPath>
    <clipPath id="clippath-PE-ST">
      <rect x="683" y="334" width="50" height="50" style="fill: none;"/>
    </clipPath>
    <clipPath id="clippath-PE-R1">
      <rect x="40" y="396" width="39" height="39" style="fill: none;"/>
    </clipPath>
    <clipPath id="clippath-PE-R2">
      <rect x="40" y="431" width="39" height="39" style="fill: none;"/>
    </clipPath>
    <clipPath id="clippath-PE-R3">
      <rect x="40" y="466" width="39" height="39" style="fill: none;"/>
    </clipPath>
    <clipPath id="clippath-PE-R4">
      <rect x="40" y="501" width="39" height="39" style="fill: none;"/>
    </clipPath>
    <clipPath id="clippath-PE-R5">
      <rect x="40" y="536" width="39" height="39" style="fill: none;"/>
    </clipPath>
    <clipPath id="clippath-PE-R6">
      <rect x="40" y="571" width="39" height="39" style="fill: none;"/>
    </clipPath>
    <clipPath id="clippath-PE-R7">
      <rect x="40" y="606" width="39" height="39" style="fill: none;"/>
    </clipPath>
    <clipPath id="clippath-PE-R8">
      <rect x="40" y="641" width="39" height="39" style="fill: none;"/>
    </clipPath>
    <clipPath id="clippath-PE-R9">
      <rect x="40" y="676" width="39" height="39" style="fill: none;"/>
    </clipPath>
    <clipPath id="clippath-PE-R10">
      <rect x="40" y="711" width="39" height="39" style="fill: none;"/>
    </clipPath>
  </defs>
  <g id="Banner">
    <rect width="1920" height="320" rx="20" ry="20" style="fill: #1c1719;"/>
    <g style="clip-path: url(#clippath-PE-BR);">
      <image width="1920" height="320" xlink:href="${banner}"/>
    </g>
    <rect width="1920" height="320" rx="20" ry="20" style="opacity: .2;"/>
  </g>
  <g id="Background">
    <rect y="290" width="1920" height="790" rx="20" ry="20" style="fill: #2a2226;"/>
    <g style="clip-path: url(#clippath-PE-BG);">
      <image width="1920" height="790" transform="translate(0 290)" xlink:href="${judge_background}"/>
    </g>
    <rect y="290" width="1920" height="790" rx="20" ry="20" style="opacity: .4;"/>
  </g>
  <g id="RBJudge_MapStatic">
    <rect id="RBBackground" x="880" y="770" width="1000" height="270" rx="20" ry="20" style="fill: #382e32;"/>
    <rect id="RUBackground" x="880" y="330" width="1000" height="420" rx="20" ry="20" style="fill: #382e32;"/>
    <g id="RBRetryFailRRect">
    </g>
    <g id="RBMapStatic">
    </g>
    <g id="JudgeRRects">
    </g>
    <g id="RetryFailGraphArea">
      <rect x="900" y="930" width="520" height="90" style="fill: none;"/>
    </g>
    <g id="TitleText">
    </g>
  </g>
  <g id="RUStat">
    <g id="LBPassStat">
      <image width="150" height="40" transform="translate(1060 690)" xlink:href="${judge_fc}"/>
      <image width="150" height="40" transform="translate(900 690)" xlink:href="${judge_nm}"/>
      <image width="150" height="40" transform="translate(1060 640)" xlink:href="${judge_cl}"/>
      <image width="150" height="40" transform="translate(900 640)" xlink:href="${judge_pl}"/>
    </g>
    <g id="LURank">
      <image id="ColoredCircle" width="210" height="210" transform="translate(950 380)" xlink:href="${colored_circle}"/>
      <g style="clip-path: url(#clippath-PE-CC);">
        <image width="270" height="270" transform="translate(920 350)" xlink:href="${colored_ring}"/>
      </g>
      <image id="Rank" width="114" height="144" transform="translate(998 413)" xlink:href="${score_rank}"/>
    </g>
    <g id="MUScore">
    </g>
    <g id="MMScoreIndex">
    </g>
    <g id="MRscoreStat">
    </g>
    <g id="MMScoreRRect">
    </g>
    <g id="MRScoreData">
    </g>
    <g id="RUMods">
    </g>
  </g>
  <g id="LMap">
    <g id="LBMapText">
    </g>
    <g id="LMMapCover">
      <g style="clip-path: url(#clippath-PE-MC);">
        <image width="380" height="440" transform="translate(250 375)" xlink:href="${map_background}"/>
      </g>
      <image id="Hexagon" width="420" height="450" transform="translate(230 370)" xlink:href="${map_hexagon}"/>
    </g>
    <g id="LUMapStatus">
      <g>
        <rect id="StarRRect" x="670" y="330" width="190" height="60" rx="20" ry="20" style="fill: #7ac943;"/>
      </g>
      <g>
        <rect id="StarRRect-2" data-name="StarRRect" x="670" y="330" width="190" height="60" rx="20" ry="20" style="fill: #382e32;"/>
      </g>
    </g>
    <g id="LUMapObject">
      <g style="clip-path: url(#clippath-PE-PC);">
        <image width="18" height="18" transform="translate(746 364)" xlink:href="${map_playcount}"/>
      </g>
      <g style="clip-path: url(#clippath-PE-FV);">
        <image width="18" height="16" transform="translate(746 338)" xlink:href="${map_favorite}"/>
      </g>
      <g style="clip-path: url(#clippath-PE-ST);">
        <image width="50" height="50" transform="translate(683 334)" xlink:href="${map_status}"/>
      </g>
    </g>
    <g id="LUStars">
      <g id="_1Star" data-name="1Star">
        <g style="clip-path: url(#clippath-PE-R1);">
          <use transform="translate(40 396)" xlink:href="image/E_Star.png"/>
        </g>
      </g>
      <g id="_2Star" data-name="2Star">
        <g style="clip-path: url(#clippath-PE-R2);">
          <use transform="translate(40 431)" xlink:href="image/E_Star.png"/>
        </g>
      </g>
      <g id="_3Star" data-name="3Star">
        <g style="clip-path: url(#clippath-PE-R3);">
          <use transform="translate(40 466)" xlink:href="image/E_Star.png"/>
        </g>
      </g>
      <g id="_4Star" data-name="4Star">
        <g style="clip-path: url(#clippath-PE-R4);">
          <use transform="translate(40 501)" xlink:href="image/E_Star.png"/>
        </g>
      </g>
      <g id="_5Star" data-name="5Star">
        <g style="clip-path: url(#clippath-PE-R5);">
          <use transform="translate(40 536)" xlink:href="image/E_Star.png"/>
        </g>
      </g>
      <g id="_6Star" data-name="6Star">
        <g style="clip-path: url(#clippath-PE-R6);">
          <use transform="translate(40 571)" xlink:href="image/E_Star.png"/>
        </g>
      </g>
      <g id="_7Star" data-name="7Star">
        <g style="clip-path: url(#clippath-PE-R7);">
          <use transform="translate(40 606)" xlink:href="image/E_Star.png"/>
        </g>
      </g>
      <g id="_8Star" data-name="8Star">
        <g style="clip-path: url(#clippath-PE-R8);">
          <use transform="translate(40 641)" xlink:href="image/E_Star.png"/>
        </g>
      </g>
      <g id="_9Star" data-name="9Star">
        <g style="clip-path: url(#clippath-PE-R9);">
          <use transform="translate(40 676)" xlink:href="image/E_Star.png"/>
        </g>
      </g>
      <g id="_10Star" data-name="10Star">
        <g style="clip-path: url(#clippath-PE-R10);">
          <use transform="translate(40 711)" xlink:href="image/E_Star.png"/>
        </g>
      </g>
    </g>
    <g id="LUCard">
      <rect id="StarRRect-3" data-name="StarRRect" x="40" y="330" width="190" height="60" rx="20" ry="20" style="fill: #382e32;"/>
    </g>
  </g>
  <g id="MainCard">
    <rect x="40" y="40" width="430" height="210" rx="20" ry="20" style="fill: #382e32;"/>
    <rect x="510" y="40" width="195" height="60" rx="15" ry="15" style="fill: #382e32;"/>
  </g>
  <g id="Index">
  </g>
</svg>