<?xml version="1.0" encoding="UTF-8"?>
<svg xmlns="http://www.w3.org/2000/svg" width="1920" height="1080" xmlns:xlink="http://www.w3.org/1999/xlink" viewBox="0 0 1920 1080">
  <defs>
    <clipPath id="#clippath-PJ-1">
      <rect width="1920" height="320" rx="20" ry="20" style="fill: none;"/>
    </clipPath>
    <clipPath id="#clippath-PJ-2">
      <circle cx="842" cy="470" r="70" style="fill: none;"/>
    </clipPath>
    <clipPath id="#clippath-PJ-3">
      <circle cx="1630" cy="815" r="70" style="fill: none;"/>
    </clipPath>
  </defs>
  <g id="Banner">
    <rect width="1920" height="320" rx="20" ry="20" style="fill: #1c1719;"/>
    <g style="clip-path: url(#clippath-PJ-1);">
    </g>
  </g>
  <g id="Background">
    <rect y="290" width="1920" height="790" rx="20" ry="20" style="fill: #2a2226;"/>
  </g>
  <g id="MainCard">
  </g>
  <g id="BPCard">
    <rect x="40" y="330" width="665" height="525" rx="20" ry="20" style="fill: #382e32;"/>
    <g id="TopBP">
    </g>
    <g id="LastBP">
    </g>
  </g>
  <g id="ModCard">
    <rect x="725" y="330" width="235" height="525" rx="20" ry="20" style="fill: #382e32;"/>
    <g id="Label_J1">
      <rect x="735" y="780" width="215" height="56" style="fill: aqua;"/>
      <rect x="735" y="710" width="215" height="56" style="fill: aqua;"/>
      <rect x="735" y="640" width="215" height="56" style="fill: aqua;"/>
      <rect x="735" y="570" width="215" height="56" style="fill: aqua;"/>
    </g>
    <g id="ModsPan">
      <circle cx="842" cy="470" r="70" style="fill: #46393f;"/>
      <g style="clip-path: url(#clippath-PJ-2);">
        <polygon points="804 368 842 470 893.067 368 804 368" style="fill: #ff0;"/>
      </g>
      <circle cx="842" cy="470" r="4" style="fill: #382e32;"/>
    </g>
    <text transform="translate(740 365.795)" style="fill: #fff; font-family: Torus-SemiBold, Torus; font-size: 30px; font-weight: 600;"><tspan x="0" y="0">Mods</tspan></text>
  </g>
  <g id="BPDCard">
    <rect x="980" y="330" width="900" height="335" rx="20" ry="20" style="fill: #382e32;"/>
    <g id="BPRanksR">
      <rect x="1042" y="525" width="16" height="85" rx="8" ry="8" style="fill: #a1a1a1;"/>
      <rect x="1062" y="588" width="16" height="22" rx="8" ry="8" style="fill: #a1a1a1;"/>
      <rect x="1082" y="588" width="16" height="22" rx="8" ry="8" style="fill: #a1a1a1;"/>
    </g>
    <g id="BPDText">
      <text id="Day3" transform="translate(1745.025 646.836)" style="fill: #fc2; font-family: Torus-SemiBold, Torus; font-size: 24px; font-weight: 600;"><tspan x="0" y="0">BP 100</tspan></text>
      <text id="Day2" transform="translate(1397.881 646.836)" style="fill: #fc2; font-family: Torus-SemiBold, Torus; font-size: 24px; font-weight: 600;"><tspan x="0" y="0">BP 50</tspan></text>
      <text id="Day1" transform="translate(1040 646.836)" style="fill: #fc2; font-family: Torus-SemiBold, Torus; font-size: 24px; font-weight: 600;"><tspan x="0" y="0">BP 1</tspan></text>
      <text id="Rank3" transform="translate(990.152 616.836)" style="fill: #fc2; font-family: Torus-SemiBold, Torus; font-size: 24px; font-weight: 600;"><tspan x="0" y="0">243</tspan></text>
      <text id="Rank2" transform="translate(989.372 509.836)" style="fill: #fc2; font-family: Torus-SemiBold, Torus; font-size: 24px; font-weight: 600;"><tspan x="0" y="0">295</tspan></text>
      <text id="Rank1" transform="translate(991.292 402.836)" style="fill: #fc2; font-family: Torus-SemiBold, Torus; font-size: 24px; font-weight: 600;"><tspan x="0" y="0">347</tspan></text>
      <text id="MaxBP" transform="translate(1744.97 401.836)" style="fill: #a1a1a1; font-family: Torus-SemiBold, Torus; font-size: 24px; font-weight: 600;"><tspan x="0" y="0">osu!mania</tspan></text>
      <text transform="translate(1611.938 374.754)" style="font-family: Torus-SemiBold, Torus; font-weight: 600;"><tspan x="0" y="0" style="fill: #f2f2f2; font-size: 36px;">4072 </tspan><tspan x="90.936" y="0" style="fill: #f2f2f2; font-size: 24px;">PP</tspan><tspan x="118.823" y="0" xml:space="preserve" style="fill: #a1a1a1; font-size: 24px;"> (3678+394)</tspan></text>
      <text transform="translate(1000 370.795)" style="fill: #fff; font-family: Torus-SemiBold, Torus; font-size: 30px; font-weight: 600;"><tspan x="0" y="0">BP Distribution</tspan></text>
    </g>
  </g>
  <g id="StatusCard">
    <rect x="40" y="875" width="920" height="165" rx="20" ry="20" style="fill: #382e32;"/>
    <g id="Card_L">
    </g>
  </g>
  <g id="MapperCard">
    <rect x="980" y="685" width="540" height="355" rx="20" ry="20" style="fill: #382e32;"/>
    <g id="Label_J2">
      <rect x="992" y="742" width="250" height="78.582" style="fill: blue;"/>
      <rect x="992" y="837.709" width="250" height="78.582" style="fill: blue;"/>
      <rect x="992" y="933.418" width="250" height="78.582" style="fill: blue;"/>
      <rect x="1252" y="742" width="250" height="78.582" style="fill: blue;"/>
      <rect x="1252" y="837.709" width="250" height="78.582" style="fill: blue;"/>
      <rect x="1252" y="933.418" width="250" height="78.582" style="fill: blue;"/>
    </g>
    <text transform="translate(1000 725.795)" style="fill: #fff; font-family: Torus-SemiBold, Torus; font-size: 30px; font-weight: 600;"><tspan x="0" y="0">Favorite Mappers</tspan></text>
    <text transform="translate(1355.522 724.754)" style="font-family: Torus-SemiBold, Torus; font-weight: 600;"><tspan x="0" y="0" style="fill: #fff; font-size: 36px;">34</tspan><tspan x="38.916" y="0" style="fill: #fff; font-size: 30px;"> </tspan><tspan x="47.016" y="0" style="fill: #a1a1a1; font-size: 24px;">mappers</tspan></text>
  </g>
  <g id="RankCard">
    <rect x="1540" y="685" width="340" height="355" rx="20" ry="20" style="fill: #382e32;"/>
    <g id="Label_J3">
      <rect x="1720" y="696" width="150" height="52" style="fill: #ff0;"/>
      <rect x="1720" y="764" width="150" height="52" style="fill: #ff0;"/>
      <rect x="1720" y="832" width="150" height="52" style="fill: #ff0;"/>
      <rect x="1720" y="900" width="150" height="52" style="fill: #ff0;"/>
      <rect x="1720" y="968" width="150" height="52" style="fill: #ff0;"/>
      <rect x="1555" y="900" width="150" height="52" style="fill: #ff0;"/>
      <rect x="1555" y="968" width="150" height="52" style="fill: #ff0;"/>
    </g>
    <g id="RanksPan">
      <circle cx="1630" cy="815" r="70" style="fill: #46393f;"/>
      <g style="clip-path: url(#clippath-PJ-3);">
        <polygon points="1592 713 1630 815 1681.067 713 1592 713" style="fill: #ff0;"/>
      </g>
      <circle cx="1630" cy="815" r="4" style="fill: #382e32;"/>
    </g>
    <text transform="translate(1560 725.795)" style="fill: #fff; font-family: Torus-SemiBold, Torus; font-size: 30px; font-weight: 600;"><tspan x="0" y="0">Ranks</tspan></text>
  </g>
  <g id="IndexBase">
    <rect x="510" y="40" width="195" height="60" rx="15" ry="15" style="fill: #382e32;"/>
  </g>
  <g id="Index">

  </g>
</svg>