<svg width="100" height="70" viewBox="0 0 100 70" fill="none" xmlns="http://www.w3.org/2000/svg">
    <g id="Frame" clip-path="url(#clip0_2432_51)">
        <path id="Vector" fill-rule="evenodd" clip-rule="evenodd"
              d="M87.1349 34.8514L74.4371 56.8506H25.5628L12.865 34.8514L25.5628 12.865H74.4371L87.1349 34.8514Z"
              fill="#66CCFF"/>
        <path id="Vector_2" fill-rule="evenodd" clip-rule="evenodd"
              d="M25.5628 69.7157C25.1511 69.69 24.7523 69.69 24.3406 69.6514C23.5301 69.5742 22.7197 69.4198 21.9349 69.1882C20.7642 68.8409 19.632 68.3263 18.6028 67.6701C17.5736 67.014 16.6345 66.2035 15.8369 65.2772C15.1293 64.4539 15.0006 64.1966 14.4217 63.2832L1.7239 41.2839C1.22216 40.3191 1.06778 40.0875 0.707559 39.0583C0.308743 37.9004 0.0771719 36.6911 0.0128466 35.4689C-0.0514786 34.2468 0.0771719 33.0117 0.360203 31.8281C0.553179 31.0305 0.823344 30.2586 1.15784 29.5124C1.32508 29.1393 1.53092 28.792 1.7239 28.4189L14.4217 6.43252C15.0135 5.5191 15.1293 5.2618 15.8369 4.43844C16.6345 3.51216 17.5736 2.70166 18.6028 2.04554C19.632 1.38942 20.7642 0.874823 21.9349 0.527467C22.7197 0.295896 23.5173 0.141516 24.3406 0.0643252C24.7523 0.0257301 25.1511 0.0257301 25.5628 0H74.4371C75.5178 0.0514602 75.8008 0.0257301 76.8686 0.231571C78.0779 0.463142 79.2358 0.861958 80.3293 1.42802C81.4229 1.99408 82.4263 2.70166 83.314 3.55075C83.9058 4.11681 84.4461 4.73434 84.9093 5.40332C85.1409 5.73781 85.3467 6.08517 85.5654 6.43252L98.2632 28.4189C98.4562 28.7791 98.6492 29.1393 98.8293 29.5124C99.1638 30.2586 99.4339 31.0305 99.6269 31.8281C99.9099 33.0246 100.039 34.2468 99.9743 35.4689C99.9099 36.6911 99.6784 37.9133 99.2795 39.0583C98.9193 40.0875 98.7649 40.3191 98.2632 41.2839L85.5654 63.2703C84.9736 64.1837 84.8578 64.441 84.1502 65.2644C83.3526 66.1907 82.4135 67.0012 81.3843 67.6573C80.3551 68.3134 79.2229 68.828 78.0522 69.1754C77.2674 69.4069 76.4698 69.5613 75.6465 69.6385C75.2348 69.6771 74.836 69.6771 74.4243 69.7028C58.15 69.7157 41.85 69.7157 25.5628 69.7157Z"
              fill="#FFCC22"/>
        <path id="Vector_3"
              d="M43.3295 60.53L47.3305 56.529C37.9776 55.4226 30.413 48.3597 28.5475 39.2512L23.6074 34.311L19.3362 38.5951C21.0601 52.9525 32.6772 64.2609 47.1633 65.5474L43.3295 61.7136C42.995 61.392 42.995 60.8645 43.3295 60.53Z"
              fill="#555555"/>
        <path id="Vector_4"
              d="M56.5032 9.45592L52.7338 13.2254C62.0995 14.4347 69.6256 21.6134 71.3624 30.8119L75.7236 35.1731L80.4194 30.4774C78.3995 16.3516 66.7824 5.31337 52.3993 4.15552L56.5032 8.25947C56.8377 8.59396 56.8377 9.12142 56.5032 9.45592Z"
              fill="#555555"/>
        <path id="Vector_5"
              d="M75.119 41.3353L71.5425 37.7588C70.3203 46.9444 63.3603 54.3547 54.3934 56.233L49.4918 61.1346L53.8016 65.4444C68.2748 63.6047 79.6346 51.7174 80.651 36.9998L76.3154 41.3353C75.9809 41.6698 75.4535 41.6698 75.119 41.3353Z"
              fill="#555555"/>
        <path id="Vector_6"
              d="M24.1991 28.1615L28.2516 32.214C29.3966 22.7968 36.5496 15.2193 45.7481 13.4439L50.328 8.86395L45.7995 4.33545C31.6995 6.21375 20.5969 17.6508 19.2461 31.9181L23.0027 28.1615C23.3372 27.827 23.8646 27.827 24.1991 28.1615Z"
              fill="#555555"/>
        <path id="Vector_7"
              d="M39.1226 42.1202C38.8267 42.2874 38.5823 42.1459 38.5823 41.7985V27.737C38.5823 27.4025 38.8267 27.261 39.1226 27.4154L51.8204 34.4783C52.1163 34.6456 52.1163 34.9029 51.8204 35.0701L39.1226 42.1202Z"
              fill="#555555"/>
        <path id="Vector_8"
              d="M51.3316 42.1202C51.0357 42.2874 50.7913 42.1459 50.7913 41.7985V27.737C50.7913 27.4025 51.0357 27.261 51.3316 27.4154L64.0294 34.4783C64.3253 34.6456 64.3253 34.9029 64.0294 35.0701L51.3316 42.1202Z"
              fill="#555555"/>
    </g>
    <defs>
        <clipPath id="clip0_2432_51">
            <rect width="100" height="69.7157" fill="white"/>
        </clipPath>
    </defs>
</svg>
