<svg width="100" height="70" viewBox="0 0 100 70" fill="none" xmlns="http://www.w3.org/2000/svg">
    <g id="Frame" clip-path="url(#clip0_2432_14)">
        <path id="Vector" fill-rule="evenodd" clip-rule="evenodd"
              d="M87.1349 34.8514L74.4371 56.8506H25.5628L12.865 34.8514L25.5628 12.865H74.4371L87.1349 34.8514Z"
              fill="#66CCFF"/>
        <path id="Vector_2" fill-rule="evenodd" clip-rule="evenodd"
              d="M25.5628 69.7157C25.1511 69.69 24.7523 69.69 24.3406 69.6514C23.5301 69.5742 22.7197 69.4198 21.9349 69.1882C20.7642 68.8409 19.632 68.3263 18.6028 67.6701C17.5736 67.014 16.6345 66.2035 15.8369 65.2772C15.1293 64.4539 15.0006 64.1966 14.4217 63.2832L1.7239 41.2839C1.22216 40.3191 1.06778 40.0875 0.707559 39.0583C0.308743 37.9004 0.0771719 36.6911 0.0128466 35.4689C-0.0514786 34.2468 0.0771719 33.0117 0.360203 31.8281C0.553179 31.0305 0.823344 30.2586 1.15784 29.5124C1.32508 29.1393 1.53092 28.792 1.7239 28.4189L14.4217 6.43252C15.0135 5.5191 15.1293 5.2618 15.8369 4.43844C16.6345 3.51216 17.5736 2.70166 18.6028 2.04554C19.632 1.38942 20.7642 0.874823 21.9349 0.527467C22.7197 0.295896 23.5173 0.141516 24.3406 0.0643252C24.7523 0.0257301 25.1511 0.0257301 25.5628 0H74.4371C75.5178 0.0514602 75.8008 0.0257301 76.8686 0.231571C78.0779 0.463142 79.2358 0.861958 80.3293 1.42802C81.4229 1.99408 82.4263 2.70166 83.314 3.55075C83.9058 4.11681 84.4461 4.73434 84.9093 5.40332C85.1409 5.73781 85.3467 6.08517 85.5654 6.43252L98.2632 28.4189C98.4562 28.7791 98.6492 29.1393 98.8293 29.5124C99.1638 30.2586 99.4339 31.0305 99.6269 31.8281C99.9099 33.0246 100.039 34.2468 99.9743 35.4689C99.9099 36.6911 99.6784 37.9133 99.2795 39.0583C98.9193 40.0875 98.7649 40.3191 98.2632 41.2839L85.5654 63.2703C84.9736 64.1837 84.8578 64.441 84.1502 65.2644C83.3526 66.1907 82.4135 67.0012 81.3843 67.6573C80.3551 68.3134 79.2229 68.828 78.0522 69.1754C77.2674 69.4069 76.4698 69.5613 75.6465 69.6385C75.2348 69.6771 74.836 69.6771 74.4243 69.7028C58.15 69.7157 41.85 69.7157 25.5628 69.7157Z"
              fill="#A5CC00"/>
        <g id="Group">
            <path id="Vector_3"
                  d="M85.1537 28.2644C84.7678 27.6598 84.2146 26.9522 83.5842 26.116C82.7094 24.971 81.7188 23.6716 81.0112 22.488C80.2007 21.1372 80.0978 20.5454 80.0978 20.3524C81.5515 18.9115 81.603 17.5864 81.3971 16.7245C81.0241 15.155 79.5446 14.2029 78.4639 13.7012C78.1294 11.2568 76.3412 8.91541 74.0383 8.16924C71.9542 7.48739 69.973 8.27216 68.7508 10.2534C67.3485 12.5305 66.2678 15.9526 65.586 18.6028L65.1614 17.8566C62.8071 13.7784 57.5711 12.3761 53.48 14.7304L33.6935 26.1546C29.6153 28.5089 28.213 33.7449 30.5673 37.836L30.8761 38.3635C29.2036 38.0933 27.0423 38.0033 24.5079 38.5179C20.0566 39.4313 15.7082 43.6382 15.065 45.9153C14.7176 47.1374 15.3094 47.8579 15.5796 48.1023C16.2228 48.707 17.1234 48.8099 18.2555 48.4111C18.2684 48.4111 18.2684 48.3982 18.2812 48.3982C18.3584 48.7842 18.4099 49.3888 18.4356 49.8005C18.5385 51.3315 18.6672 53.2355 20.3396 53.9431C21.3431 54.3676 22.501 54.1746 24.0448 53.2612C24.0448 53.5314 24.0448 53.8144 24.0576 54.0974C24.1348 56.5289 24.4822 59.4107 26.4634 60.0668C26.7207 60.1569 26.9909 60.1955 27.2353 60.1955C28.9721 60.1955 30.4258 58.2657 31.5322 56.4903C34.697 51.4344 36.228 49.4917 36.8841 48.7584L37.5145 49.8391C39.0969 52.5794 41.9786 54.1103 44.9247 54.1103C46.3785 54.1103 47.8451 53.7372 49.1831 52.9653L68.9566 41.5669C73.0349 39.2126 74.4371 33.9765 72.0828 29.8854L70.6291 27.351C72.0571 27.1452 74.9003 27.2738 79.2358 29.8082C80.651 30.6316 81.693 31.1848 82.4392 31.5064C82.7608 31.6479 83.3655 31.9052 84.0216 31.9052C84.5105 31.9052 85.0122 31.7637 85.411 31.3006C86.4016 30.1813 85.5011 28.7919 85.1537 28.2644ZM47.5621 50.1993C46.5843 50.7654 45.4908 50.9841 44.4487 50.894L50.0965 21.4331C50.1608 21.0986 50.1093 20.7641 49.9807 20.4811L55.0753 17.535C55.6156 17.2262 56.1816 17.0204 56.7606 16.9175L50.7011 48.3982L47.5621 50.1993ZM36.704 28.1358L34.7099 38.5693L33.3591 36.2279C32.6515 34.9928 32.4585 33.552 32.8316 32.1883C33.2047 30.8117 34.0795 29.6667 35.3145 28.9463L36.704 28.1358ZM64.634 40.3447L67.0269 27.5569L69.304 31.5064C70.7706 34.0537 69.8958 37.3214 67.3485 38.788L64.634 40.3447ZM34.0023 47.1889C32.7544 48.707 31.0048 51.2671 28.792 54.805C28.2388 55.6927 27.8142 56.233 27.5312 56.5547C27.2482 55.2682 27.1581 52.6308 27.3639 50.1865C27.4154 49.5432 27.0809 48.9257 26.502 48.6298C25.9231 48.3339 25.2283 48.3982 24.7266 48.8228C23.0927 50.1865 22.1922 50.6882 21.7548 50.8683C21.6905 50.4952 21.6519 49.9806 21.6261 49.6204C21.5232 48.1409 21.4074 46.4685 20.0823 45.5936C19.8379 45.4393 19.5806 45.3235 19.3104 45.2463C20.6227 43.8826 22.8483 42.1715 25.1383 41.7084C29.8984 40.7307 32.9216 42.3131 33.076 42.3902C33.1146 42.416 33.1661 42.4288 33.2047 42.4546L35.2116 45.9281C34.7613 46.2626 34.3497 46.7644 34.0023 47.1889ZM68.9438 24.4306L67.9403 22.6939C68.2491 21.1758 69.5484 15.0906 71.4911 11.9516C72.0443 11.051 72.5974 11.0767 73.0477 11.2311C74.1798 11.6042 75.4149 13.1995 75.2991 14.7047C75.2348 15.4637 75.7108 16.1584 76.4441 16.3771C77.216 16.6087 78.1551 17.1876 78.2709 17.4835C78.2581 17.535 78.1809 17.7537 77.7821 18.1396C76.5599 19.3232 76.5856 21.1115 77.8592 23.4786C78.3867 24.4564 79.0814 25.4727 79.8019 26.4505C74.2442 23.4658 70.6291 23.8903 68.9438 24.4306Z"
                  fill="#555555"/>
        </g>
    </g>
    <defs>
        <clipPath id="clip0_2432_14">
            <rect width="100" height="69.7157" fill="white"/>
        </clipPath>
    </defs>
</svg>
