<svg width="100" height="70" viewBox="0 0 100 70" fill="none" xmlns="http://www.w3.org/2000/svg">
    <g id="Frame" clip-path="url(#clip0_2432_237)">
        <g id="Group">
            <path id="Vector" fill-rule="evenodd" clip-rule="evenodd"
                  d="M87.1349 34.8514L74.4371 56.8506H25.5628L12.865 34.8514L25.5628 12.865H74.4371L87.1349 34.8514Z"
                  fill="#66CCFF"/>
        </g>
        <g id="Group_2">
            <path id="Vector_2" fill-rule="evenodd" clip-rule="evenodd"
                  d="M25.5628 69.7157C25.1511 69.69 24.7523 69.69 24.3406 69.6514C23.5301 69.5742 22.7197 69.4198 21.9349 69.1882C20.7642 68.8409 19.632 68.3263 18.6028 67.6701C17.5736 67.014 16.6345 66.2035 15.8369 65.2772C15.1293 64.4539 15.0006 64.1966 14.4217 63.2832L1.7239 41.2839C1.22216 40.3191 1.06778 40.0875 0.707559 39.0583C0.308743 37.9004 0.0771719 36.6911 0.0128466 35.4689C-0.0514786 34.2468 0.0771719 33.0117 0.360203 31.8281C0.553179 31.0305 0.823344 30.2586 1.15784 29.5124C1.32508 29.1393 1.53092 28.792 1.7239 28.4189L14.4217 6.43252C15.0135 5.5191 15.1293 5.2618 15.8369 4.43844C16.6345 3.51216 17.5736 2.70166 18.6028 2.04554C19.632 1.38942 20.7642 0.874823 21.9349 0.527467C22.7197 0.295896 23.5173 0.141516 24.3406 0.0643252C24.7523 0.0257301 25.1511 0.0257301 25.5628 0H74.4371C75.5178 0.0514602 75.8008 0.0257301 76.8686 0.231571C78.0779 0.463142 79.2358 0.861958 80.3293 1.42802C81.4229 1.99408 82.4263 2.70166 83.314 3.55075C83.9058 4.11681 84.4461 4.73434 84.9093 5.40332C85.1409 5.73781 85.3467 6.08517 85.5654 6.43252L98.2632 28.4189C98.4562 28.7791 98.6492 29.1393 98.8293 29.5124C99.1638 30.2586 99.4339 31.0305 99.6269 31.8281C99.9099 33.0246 100.039 34.2468 99.9743 35.4689C99.9099 36.6911 99.6784 37.9133 99.2795 39.0583C98.9193 40.0875 98.7649 40.3191 98.2632 41.2839L85.5654 63.2703C84.9736 64.1837 84.8578 64.441 84.1502 65.2644C83.3526 66.1907 82.4135 67.0012 81.3843 67.6573C80.3551 68.3134 79.2229 68.828 78.0522 69.1754C77.2674 69.4069 76.4698 69.5613 75.6465 69.6385C75.2348 69.6771 74.836 69.6771 74.4243 69.7028C58.15 69.7157 41.85 69.7157 25.5628 69.7157Z"
                  fill="#FFCC22"/>
        </g>
        <g id="Group_3">
            <g id="Group_4">
                <g id="Group_5">
                    <path id="Vector_3"
                          d="M30.9019 45.2722C30.9019 43.4968 32.3427 42.0559 34.1181 42.0559H66.538C68.3134 42.0559 69.7543 43.4968 69.7543 45.2722C69.7543 47.0475 68.3134 48.4884 66.538 48.4884H34.1181C32.3427 48.4884 30.9019 47.0475 30.9019 45.2722Z"
                          fill="#555555"/>
                </g>
            </g>
        </g>
        <g id="Group_6">
            <path id="Vector_4"
                  d="M40.1004 36.9098H34.1696C32.3943 36.9098 30.9534 35.4689 30.9534 33.6936C30.9534 31.9182 32.3943 30.4773 34.1696 30.4773H40.1004C41.8758 30.4773 43.3167 31.9182 43.3167 33.6936C43.3167 35.4689 41.8758 36.9098 40.1004 36.9098Z"
                  fill="#555555"/>
        </g>
        <g id="Group_7">
            <path id="Vector_5"
                  d="M66.5123 36.9098H60.5815C58.8061 36.9098 57.3652 35.4689 57.3652 33.6936C57.3652 31.9182 58.8061 30.4773 60.5815 30.4773H66.5123C68.2877 30.4773 69.7285 31.9182 69.7285 33.6936C69.7285 35.4689 68.2877 36.9098 66.5123 36.9098Z"
                  fill="#555555"/>
        </g>
        <g id="Group_8">
            <path id="Vector_6"
                  d="M53.2999 36.9098H47.3691C45.5937 36.9098 44.1528 35.4689 44.1528 33.6936C44.1528 31.9182 45.5937 30.4773 47.3691 30.4773H53.2999C55.0753 30.4773 56.5161 31.9182 56.5161 33.6936C56.5161 35.4689 55.0753 36.9098 53.2999 36.9098Z"
                  fill="#555555"/>
        </g>
        <g id="Group_9">
            <path id="Vector_7"
                  d="M34.1696 25.3312C35.9459 25.3312 37.3859 23.8912 37.3859 22.1149C37.3859 20.3387 35.9459 18.8987 34.1696 18.8987C32.3933 18.8987 30.9534 20.3387 30.9534 22.1149C30.9534 23.8912 32.3933 25.3312 34.1696 25.3312Z"
                  fill="#555555"/>
        </g>
        <g id="Group_10">
            <path id="Vector_8"
                  d="M49.9936 25.3312C51.7699 25.3312 53.2098 23.8912 53.2098 22.1149C53.2098 20.3387 51.7699 18.8987 49.9936 18.8987C48.2173 18.8987 46.7773 20.3387 46.7773 22.1149C46.7773 23.8912 48.2173 25.3312 49.9936 25.3312Z"
                  fill="#555555"/>
        </g>
        <g id="Group_11">
            <path id="Vector_9"
                  d="M66.5123 25.3312C68.2886 25.3312 69.7285 23.8912 69.7285 22.1149C69.7285 20.3387 68.2886 18.8987 66.5123 18.8987C64.736 18.8987 63.296 20.3387 63.296 22.1149C63.296 23.8912 64.736 25.3312 66.5123 25.3312Z"
                  fill="#555555"/>
        </g>
    </g>
    <defs>
        <clipPath id="clip0_2432_237">
            <rect width="100" height="69.7157" fill="white"/>
        </clipPath>
    </defs>
</svg>
