<svg width="100" height="70" viewBox="0 0 100 70" fill="none" xmlns="http://www.w3.org/2000/svg">
    <g id="Frame" clip-path="url(#clip0_2432_132)">
        <path id="Vector" fill-rule="evenodd" clip-rule="evenodd"
              d="M25.5628 69.7157C25.1511 69.69 24.7523 69.69 24.3406 69.6514C23.5301 69.5742 22.7197 69.4198 21.9349 69.1882C20.7642 68.8409 19.632 68.3263 18.6028 67.6701C17.5736 67.014 16.6345 66.2035 15.8369 65.2772C15.1293 64.4539 15.0006 64.1966 14.4217 63.2832L1.7239 41.2839C1.22216 40.3191 1.06778 40.0875 0.707559 39.0583C0.308743 37.9004 0.0771719 36.6911 0.0128466 35.4689C-0.0514786 34.2468 0.0771719 33.0117 0.360203 31.8281C0.553179 31.0305 0.823344 30.2586 1.15784 29.5124C1.32508 29.1393 1.53092 28.792 1.7239 28.4189L14.4217 6.43252C15.0135 5.5191 15.1293 5.2618 15.8369 4.43844C16.6345 3.51216 17.5736 2.70166 18.6028 2.04554C19.632 1.38942 20.7642 0.874823 21.9349 0.527467C22.7197 0.295896 23.5173 0.141516 24.3406 0.0643252C24.7523 0.0257301 25.1511 0.0257301 25.5628 0H74.4371C75.5178 0.0514602 75.8008 0.0257301 76.8686 0.231571C78.0779 0.463142 79.2358 0.861958 80.3293 1.42802C81.4229 1.99408 82.4263 2.70166 83.314 3.55075C83.9058 4.11681 84.4461 4.73434 84.9093 5.40332C85.1409 5.73781 85.3467 6.08517 85.5654 6.43252L98.2632 28.4189C98.4562 28.7791 98.6492 29.1393 98.8293 29.5124C99.1638 30.2586 99.4339 31.0305 99.6269 31.8281C99.9099 33.0246 100.039 34.2468 99.9743 35.4689C99.9099 36.6911 99.6784 37.9133 99.2795 39.0583C98.9193 40.0875 98.7649 40.3191 98.2632 41.2839L85.5654 63.2703C84.9736 64.1837 84.8578 64.441 84.1502 65.2644C83.3526 66.1907 82.4135 67.0012 81.3843 67.6573C80.3551 68.3134 79.2229 68.828 78.0522 69.1754C77.2674 69.4069 76.4698 69.5613 75.6465 69.6385C75.2348 69.6771 74.836 69.6771 74.4243 69.7028C58.15 69.7157 41.85 69.7157 25.5628 69.7157Z"
              fill="#FFCC22"/>
        <path id="Vector_2" fill-rule="evenodd" clip-rule="evenodd"
              d="M34.9158 40.332C36.5496 40.332 37.8876 39.0198 37.8876 37.3859L37.9133 31.5195C37.9133 29.8856 36.6011 28.5476 34.9672 28.5476L22.4624 28.509C20.8285 28.509 19.4906 29.8213 19.4906 31.4551L19.4648 37.3216C19.4648 38.9555 20.7771 40.2934 22.4109 40.2934L34.9158 40.332Z"
              fill="#555555"/>
        <path id="Vector_3" fill-rule="evenodd" clip-rule="evenodd"
              d="M21.7548 34.3883L44.7832 22.9771L44.6931 45.9669L21.7548 34.3883Z" fill="#555555"/>
        <path id="Vector_4"
              d="M45.286 37.7623C47.1009 37.4575 48.325 35.7393 48.0203 33.9244C47.7156 32.1096 45.9973 30.8854 44.1824 31.1902C42.3676 31.4949 41.1434 33.2132 41.4482 35.028C41.7529 36.8428 43.4712 38.067 45.286 37.7623Z"
              fill="#555555"/>
        <g id="Group">
            <path id="Vector_5"
                  d="M74.8103 58.1887C74.643 58.1887 74.4758 58.1629 74.3214 58.0858L47.5363 46.9575C46.8802 46.6873 46.5715 45.9283 46.8416 45.2722C47.1118 44.6161 47.8708 44.3073 48.5269 44.5775L75.2991 55.7186C75.9553 55.9888 76.264 56.7478 75.9939 57.4039C75.788 57.8928 75.312 58.1887 74.8103 58.1887Z"
                  fill="#555555"/>
        </g>
        <g id="Group_2">
            <path id="Vector_6"
                  d="M48.1152 24.3407C47.6264 24.3407 47.1632 24.0577 46.9445 23.5946C46.6486 22.9513 46.9317 22.1794 47.5749 21.8835L69.9472 11.6301C70.5905 11.3342 71.3624 11.6172 71.6583 12.2605C71.9542 12.9037 71.6711 13.6756 71.0279 13.9715L48.6556 24.2249C48.4755 24.3021 48.2953 24.3407 48.1152 24.3407Z"
                  fill="#555555"/>
        </g>
    </g>
    <defs>
        <clipPath id="clip0_2432_132">
            <rect width="100" height="69.7157" fill="white"/>
        </clipPath>
    </defs>
</svg>
