<svg width="100" height="70" viewBox="0 0 100 70" fill="none" xmlns="http://www.w3.org/2000/svg">
    <g id="Frame" clip-path="url(#clip0_2432_258)">
        <path id="Vector" fill-rule="evenodd" clip-rule="evenodd"
              d="M87.1349 34.8514L74.4371 56.8506H25.5628L12.865 34.8514L25.5628 12.865H74.4371L87.1349 34.8514Z"
              fill="#FFCC22"/>
        <path id="Vector_2" fill-rule="evenodd" clip-rule="evenodd"
              d="M25.5628 69.7157C25.1511 69.69 24.7523 69.69 24.3406 69.6514C23.5301 69.5742 22.7197 69.4198 21.9349 69.1882C20.7642 68.8409 19.632 68.3263 18.6028 67.6701C17.5736 67.014 16.6345 66.2035 15.8369 65.2772C15.1293 64.4539 15.0006 64.1966 14.4217 63.2832L1.7239 41.2839C1.22216 40.3191 1.06778 40.0875 0.707559 39.0583C0.308743 37.9004 0.0771719 36.6911 0.0128466 35.4689C-0.0514786 34.2468 0.0771719 33.0117 0.360203 31.8281C0.553179 31.0305 0.823344 30.2586 1.15784 29.5124C1.32508 29.1393 1.53092 28.792 1.7239 28.4189L14.4217 6.43252C15.0135 5.5191 15.1293 5.2618 15.8369 4.43844C16.6345 3.51216 17.5736 2.70166 18.6028 2.04554C19.632 1.38942 20.7642 0.874823 21.9349 0.527467C22.7197 0.295896 23.5173 0.141516 24.3406 0.0643252C24.7523 0.0257301 25.1511 0.0257301 25.5628 0H74.4371C75.5178 0.0514602 75.8008 0.0257301 76.8686 0.231571C78.0779 0.463142 79.2358 0.861958 80.3293 1.42802C81.4229 1.99408 82.4263 2.70166 83.314 3.55075C83.9058 4.11681 84.4461 4.73434 84.9093 5.40332C85.1409 5.73781 85.3467 6.08517 85.5654 6.43252L98.2632 28.4189C98.4562 28.7791 98.6492 29.1393 98.8293 29.5124C99.1638 30.2586 99.4339 31.0305 99.6269 31.8281C99.9099 33.0246 100.039 34.2468 99.9743 35.4689C99.9099 36.6911 99.6784 37.9133 99.2795 39.0583C98.9193 40.0875 98.7649 40.3191 98.2632 41.2839L85.5654 63.2703C84.9736 64.1837 84.8578 64.441 84.1502 65.2644C83.3526 66.1907 82.4135 67.0012 81.3843 67.6573C80.3551 68.3134 79.2229 68.828 78.0522 69.1754C77.2674 69.4069 76.4698 69.5613 75.6465 69.6385C75.2348 69.6771 74.836 69.6771 74.4243 69.7028C58.15 69.7157 41.85 69.7157 25.5628 69.7157Z"
              fill="#FFCC22"/>
        <path id="Vector_3"
              d="M71.1695 19.0275V43.9986C70.835 53.8146 62.8972 61.688 53.004 61.688C43.1108 61.688 35.0573 53.8017 34.7099 43.9986L29.0107 35.572C28.6633 35.0574 28.7019 34.5428 28.7534 34.2726C28.8048 34.0153 28.9721 33.5136 29.4867 33.1533C29.7697 32.9475 30.0914 32.8703 30.4387 32.8703C31.0176 32.8703 31.5708 33.1533 31.8796 33.6422L38.3378 43.3811C38.4279 44.5904 39.4314 45.5424 40.6536 45.5424C41.9401 45.5424 42.995 44.4875 42.995 43.2267H43.0079V27.3512V26.7208V9.89334C43.0079 8.94133 43.7798 8.16943 44.7318 8.16943C45.6838 8.16943 46.4557 8.94133 46.4557 9.89334V29.8728V32.0212V38.8011C46.4557 42.3133 49.3117 45.1693 52.8239 45.1693C54.4706 45.1693 55.963 44.5389 57.0694 43.5226C58.2015 44.5389 59.6938 45.1693 61.3148 45.1693C64.8141 45.1693 67.6316 42.3647 67.683 38.8783V38.8011V29.8728V17.548C67.683 16.6089 68.4421 15.8499 69.3812 15.8499C70.3204 15.8499 71.0794 16.6089 71.0794 17.548L71.1695 19.0275ZM51.1514 29.8856C51.1514 28.9336 51.9233 28.1488 52.8882 28.1488C53.8402 28.1488 54.625 28.9207 54.625 29.8856V38.814C54.625 39.766 53.8531 40.5508 52.8882 40.5508C51.9362 40.5508 51.1514 39.7788 51.1514 38.814V29.8856ZM59.6552 29.8856C59.6552 28.9336 60.4271 28.1488 61.392 28.1488C62.344 28.1488 63.1288 28.9207 63.1288 29.8856V38.814C63.1288 39.766 62.3569 40.5508 61.392 40.5508C60.44 40.5508 59.6552 39.7788 59.6552 38.814V29.8856ZM75.8009 19.0275V17.5609C75.8009 14.0616 72.9577 11.2184 69.4584 11.2184C65.9591 11.2184 63.1159 14.0616 63.1159 17.5609V23.7619C62.5627 23.6075 61.971 23.5174 61.3792 23.5174C59.7324 23.5174 58.2401 24.1478 57.1337 25.1642C56.0016 24.1478 54.5092 23.5174 52.8882 23.5174C52.2836 23.5174 51.6918 23.6075 51.1514 23.7619V9.89334C51.1514 6.38119 48.3083 3.52515 44.7832 3.52515C41.2711 3.52515 38.415 6.36832 38.415 9.89334V26.7208V27.3512V35.096L35.7391 31.0949C34.5169 29.2552 32.51 28.2646 30.4516 28.2646C29.2423 28.2646 28.0072 28.612 26.9265 29.3453C24.0062 31.3008 23.2214 35.2375 25.1898 38.1707L30.3615 45.9155C31.6094 57.3268 41.2839 66.1908 52.9911 66.1908C65.3673 66.1908 75.4535 56.2976 75.788 44.0243L75.8009 19.0275Z"
              fill="#555555"/>
    </g>
    <defs>
        <clipPath id="clip0_2432_258">
            <rect width="100" height="69.7157" fill="white"/>
        </clipPath>
    </defs>
</svg>
