<svg width="100" height="70" viewBox="0 0 100 70" fill="none" xmlns="http://www.w3.org/2000/svg">
    <g id="Frame" clip-path="url(#clip0_2432_199)">
        <g id="Group">
            <path id="Vector" fill-rule="evenodd" clip-rule="evenodd"
                  d="M87.1349 34.8514L74.4371 56.8506H25.5628L12.865 34.8514L25.5628 12.865H74.4371L87.1349 34.8514Z"
                  fill="#66CCFF"/>
        </g>
        <g id="Group_2">
            <path id="Vector_2" fill-rule="evenodd" clip-rule="evenodd"
                  d="M25.5628 69.7157C25.1511 69.69 24.7523 69.69 24.3406 69.6514C23.5301 69.5742 22.7197 69.4198 21.9349 69.1882C20.7642 68.8409 19.632 68.3263 18.6028 67.6701C17.5736 67.014 16.6345 66.2035 15.8369 65.2772C15.1293 64.4539 15.0006 64.1966 14.4217 63.2832L1.7239 41.2839C1.22216 40.3191 1.06778 40.0875 0.707559 39.0583C0.308743 37.9004 0.0771719 36.6911 0.0128466 35.4689C-0.0514786 34.2468 0.0771719 33.0117 0.360203 31.8281C0.553179 31.0305 0.823344 30.2586 1.15784 29.5124C1.32508 29.1393 1.53092 28.792 1.7239 28.4189L14.4217 6.43252C15.0135 5.5191 15.1293 5.2618 15.8369 4.43844C16.6345 3.51216 17.5736 2.70166 18.6028 2.04554C19.632 1.38942 20.7642 0.874823 21.9349 0.527467C22.7197 0.295896 23.5173 0.141516 24.3406 0.0643252C24.7523 0.0257301 25.1511 0.0257301 25.5628 0H74.4371C75.5178 0.0514602 75.8008 0.0257301 76.8686 0.231571C78.0779 0.463142 79.2358 0.861958 80.3293 1.42802C81.4229 1.99408 82.4263 2.70166 83.314 3.55075C83.9058 4.11681 84.4461 4.73434 84.9093 5.40332C85.1409 5.73781 85.3467 6.08517 85.5654 6.43252L98.2632 28.4189C98.4562 28.7791 98.6492 29.1393 98.8293 29.5124C99.1638 30.2586 99.4339 31.0305 99.6269 31.8281C99.9099 33.0246 100.039 34.2468 99.9743 35.4689C99.9099 36.6911 99.6784 37.9133 99.2795 39.0583C98.9193 40.0875 98.7649 40.3191 98.2632 41.2839L85.5654 63.2703C84.9736 64.1837 84.8578 64.441 84.1502 65.2644C83.3526 66.1907 82.4135 67.0012 81.3843 67.6573C80.3551 68.3134 79.2229 68.828 78.0522 69.1754C77.2674 69.4069 76.4698 69.5613 75.6465 69.6385C75.2348 69.6771 74.836 69.6771 74.4243 69.7028C58.15 69.7157 41.85 69.7157 25.5628 69.7157Z"
                  fill="#A5CC00"/>
        </g>
        <g id="Group_3">
            <path id="Vector_3"
                  d="M57.0179 28.4962C59.7452 24.0835 61.1218 19.2977 61.0317 14.1002C61.006 12.9938 60.916 11.8874 60.8388 10.781L58.343 11.2184C58.4073 12.0546 58.4845 12.878 58.5231 13.7014C58.7289 19.1047 57.0822 23.9548 54.1232 28.4061C53.3642 29.5382 52.6309 30.6832 51.949 31.8668C50.8555 33.7837 51.1771 35.5977 52.8496 37.0128C53.9045 37.9005 55.0109 38.7368 56.1173 39.5601C60.1183 42.5191 63.2317 46.1728 64.9427 50.9071C65.3287 51.9749 65.6503 53.0813 65.9848 54.2005L68.442 53.7631C68.2619 53.1199 68.0947 52.4895 67.9017 51.8462C66.4351 46.9447 63.8235 42.7635 59.9254 39.4315C58.2915 38.042 56.529 36.807 54.8565 35.4562C53.6344 34.4784 53.5572 33.9638 54.3677 32.6259C55.2168 31.2364 56.1559 29.8856 57.0179 28.4962Z"
                  fill="#555555"/>
        </g>
        <g id="Group_4">
            <path id="Vector_4"
                  d="M65.9849 54.8952C65.6761 54.8952 65.3931 54.6894 65.303 54.3935L65.1358 53.8531C64.8527 52.914 64.5826 52.0134 64.2738 51.1386C62.7171 46.8417 59.9125 43.2395 55.6928 40.1133C54.4963 39.2256 53.4157 38.4151 52.3865 37.5403C50.4567 35.9064 50.0836 33.7065 51.3315 31.5066C52.0262 30.2844 52.7982 29.1008 53.5315 28.0073C56.6062 23.4016 58.0085 18.7316 57.8155 13.7271C57.7898 12.9938 57.7255 12.2733 57.6612 11.5143L57.6354 11.2827C57.6097 10.9225 57.8541 10.588 58.2143 10.5237L60.7102 10.0863C60.9031 10.0477 61.109 10.0991 61.2634 10.2278C61.4178 10.3564 61.5207 10.5365 61.5335 10.7295L61.5721 11.2055C61.6365 12.1447 61.7136 13.1224 61.7265 14.0873C61.8166 19.3234 60.44 24.2893 57.6097 28.8692C57.198 29.5253 56.7735 30.1943 56.3489 30.8247C55.8858 31.5323 55.4098 32.2656 54.9595 32.9989C54.3291 34.0281 54.3548 34.1568 55.294 34.9029C55.963 35.4433 56.6705 35.9836 57.3524 36.4982C58.3559 37.2572 59.3979 38.0549 60.3757 38.8911C64.2867 42.2231 67.0527 46.5201 68.5707 51.6404C68.7637 52.2836 68.9438 52.9269 69.1111 53.5572C69.1625 53.7502 69.1368 53.9561 69.0339 54.1233C68.931 54.2906 68.7509 54.4063 68.5579 54.4449L66.1006 54.8823C66.062 54.8823 66.0235 54.8952 65.9849 54.8952ZM59.102 11.7973C59.1535 12.4148 59.205 13.0452 59.2307 13.6756C59.4237 18.9889 57.957 23.9291 54.715 28.792C54.0075 29.8598 53.2484 31.0177 52.5666 32.2013C51.6403 33.8223 51.8847 35.2503 53.2999 36.4467C54.3034 37.2958 55.3583 38.0806 56.5419 38.9554C60.9932 42.2489 63.9522 46.0698 65.6118 50.6369C65.9334 51.5246 66.2164 52.4637 66.4866 53.3643L67.5673 53.1713C67.4643 52.7853 67.3486 52.3994 67.2456 52.0263C65.7919 47.1762 63.1803 43.1108 59.488 39.9589C58.536 39.1484 57.5196 38.3636 56.529 37.6175C55.8472 37.09 55.1267 36.5497 54.4449 35.9965C52.9525 34.8 52.7982 33.8866 53.7888 32.2527C54.2519 31.5066 54.7279 30.7604 55.2039 30.0399C55.6156 29.4096 56.0402 28.7534 56.439 28.1102C59.1149 23.7747 60.4271 19.0532 60.3371 14.1002C60.3242 13.2768 60.2599 12.4277 60.2084 11.6043L59.102 11.7973Z"
                  fill="#555555"/>
        </g>
        <g id="Group_5">
            <path id="Vector_5"
                  d="M41.4898 55.8857C41.2839 50.5339 42.9049 45.7223 45.8124 41.2839C46.5586 40.1518 47.2919 38.9939 47.9609 37.8103C49.003 35.9578 48.6942 34.1309 47.0603 32.7672C45.5165 31.4679 43.8827 30.2714 42.326 28.9978C38.2735 25.6657 35.6105 21.446 34.2854 16.3772C34.2082 16.0941 34.1438 15.8111 34.0666 15.5281L31.5966 15.9655C31.7509 16.583 31.9182 17.2005 32.0854 17.8052C33.5263 22.7711 36.1508 26.9908 40.0618 30.3615C41.6956 31.7766 43.471 33.0374 45.1563 34.414C46.1855 35.2502 46.2756 35.8034 45.5937 36.9612C44.9376 38.0805 44.2172 39.1612 43.5096 40.2418C40.4863 44.899 38.8524 49.9935 38.9682 55.577C38.994 56.6962 39.0969 57.8026 39.1869 58.9348L41.657 58.4973C41.5927 57.6225 41.5155 56.7477 41.4898 55.8857Z"
                  fill="#555555"/>
        </g>
        <g id="Group_6">
            <path id="Vector_6"
                  d="M39.1869 59.6423C39.0326 59.6423 38.8782 59.5908 38.7495 59.5008C38.5951 59.385 38.4922 59.192 38.4794 58.999L38.4408 58.4716C38.3636 57.5324 38.2864 56.5675 38.2607 55.6026C38.1449 50.0835 39.7144 44.796 42.9178 39.8687L43.2523 39.3541C43.8312 38.4664 44.4359 37.5401 44.9762 36.6138C45.4779 35.7647 45.4522 35.5975 44.6932 34.98C44.0113 34.4268 43.2909 33.8736 42.609 33.3333C41.6056 32.5613 40.5764 31.7637 39.5986 30.9146C35.649 27.5054 32.8959 23.157 31.4036 18.011C31.2363 17.4192 31.082 16.8145 30.9276 16.2227L30.9018 16.1456C30.8504 15.9526 30.889 15.7467 30.9919 15.5924C31.0948 15.438 31.2749 15.3093 31.4679 15.2836L33.938 14.8462C34.2982 14.7819 34.6584 15.0134 34.7485 15.3608C34.8257 15.6567 34.9029 15.9397 34.9672 16.2099C36.2537 21.1501 38.891 25.2669 42.7763 28.4703C43.471 29.0363 44.1786 29.5895 44.8862 30.1299C45.761 30.8117 46.6615 31.5064 47.5235 32.2397C49.4146 33.835 49.7877 35.9963 48.5784 38.1705C47.8966 39.3927 47.1247 40.5763 46.4042 41.6827C43.3809 46.2884 42.0044 50.9326 42.1974 55.8728C42.2231 56.6447 42.2874 57.4038 42.3517 58.2014L42.3646 58.4458C42.3903 58.806 42.1459 59.1277 41.7857 59.192L39.3156 59.6294C39.2641 59.6294 39.2255 59.6423 39.1869 59.6423ZM32.4585 16.5186C32.5486 16.8789 32.6515 17.2391 32.7544 17.5993C34.1696 22.4752 36.7812 26.592 40.512 29.8211C41.464 30.6445 42.4804 31.4292 43.471 32.1883C44.1657 32.7286 44.8862 33.2818 45.5937 33.8607C46.8931 34.9157 47.0603 35.8548 46.1984 37.3086C45.6323 38.2606 45.0277 39.1997 44.4359 40.1003L44.1014 40.6149C41.0652 45.2977 39.5729 50.328 39.6758 55.5512C39.6887 56.3874 39.753 57.2494 39.8302 58.0856L40.898 57.8926C40.8465 57.2365 40.7951 56.5675 40.7693 55.8985C40.5764 50.6625 42.0301 45.748 45.2078 40.885C45.9154 39.8044 46.6615 38.6465 47.3305 37.4629C48.2053 35.8934 47.9609 34.4525 46.5972 33.3075C45.761 32.5999 44.8604 31.9052 43.9985 31.2362C43.2909 30.6959 42.5704 30.1299 41.8629 29.5509C37.7332 26.1546 34.9543 21.7933 33.5778 16.5572C33.552 16.48 33.5392 16.4029 33.5134 16.3385L32.4585 16.5186Z"
                  fill="#555555"/>
        </g>
        <g id="Group_7">
            <path id="Vector_7"
                  d="M58.3431 11.2184L60.8389 10.7809L63.4891 10.3049C63.9008 10.2277 64.1709 9.8418 64.0937 9.43011L63.2318 4.5414C63.2318 4.5028 63.206 4.47707 63.1932 4.43848C63.0774 4.09112 62.73 3.87241 62.3569 3.93674L27.7628 10.0605C27.3898 10.1248 27.1453 10.4593 27.1582 10.8324C27.1582 10.871 27.1453 10.8967 27.1582 10.9353L28.0201 15.824C28.0973 16.2357 28.4833 16.5059 28.895 16.4287L31.5838 15.9527L34.0538 15.5153L58.3431 11.2184Z"
                  fill="#555555"/>
        </g>
        <g id="Group_8">
            <path id="Vector_8"
                  d="M63.013 54.7149L44.6031 57.9827L41.657 58.5101L39.1869 58.9475L36.511 59.4235C36.0993 59.5007 35.8292 59.8867 35.8935 60.2984L36.7554 65.1871C36.7683 65.2257 36.7812 65.2643 36.794 65.3029C36.9098 65.6502 37.2572 65.8689 37.6303 65.8046L72.2244 59.668C72.5974 59.6037 72.8419 59.282 72.829 58.9218C72.829 58.8832 72.8419 58.8446 72.829 58.7932L71.9671 53.9044C71.8899 53.4928 71.5039 53.2226 71.0922 53.2998L68.4292 53.7758L65.9719 54.2132L63.013 54.7149Z"
                  fill="#555555"/>
        </g>
        <g id="Group_9">
            <path id="Vector_9"
                  d="M38.8524 17.6379C40.1518 20.4168 43.085 24.7652 48.9 27.4411C48.9 27.4411 52.2964 23.9418 54.4449 17.6379H38.8524Z"
                  fill="#555555"/>
        </g>
    </g>
    <defs>
        <clipPath id="clip0_2432_199">
            <rect width="100" height="69.7157" fill="white"/>
        </clipPath>
    </defs>
</svg>
