<svg width="100" height="70" viewBox="0 0 100 70" fill="none" xmlns="http://www.w3.org/2000/svg">
    <g id="Frame" clip-path="url(#clip0_2432_126)">
        <path id="Vector" fill-rule="evenodd" clip-rule="evenodd"
              d="M25.5628 69.7157C25.1511 69.69 24.7523 69.69 24.3406 69.6514C23.5301 69.5742 22.7197 69.4198 21.9349 69.1882C20.7642 68.8409 19.632 68.3263 18.6028 67.6701C17.5736 67.014 16.6345 66.2035 15.8369 65.2772C15.1293 64.4539 15.0006 64.1966 14.4217 63.2832L1.7239 41.2839C1.22216 40.3191 1.06778 40.0875 0.707559 39.0583C0.308743 37.9004 0.0771719 36.6911 0.0128466 35.4689C-0.0514786 34.2468 0.0771719 33.0117 0.360203 31.8281C0.553179 31.0305 0.823344 30.2586 1.15784 29.5124C1.32508 29.1393 1.53092 28.792 1.7239 28.4189L14.4217 6.43252C15.0135 5.5191 15.1293 5.2618 15.8369 4.43844C16.6345 3.51216 17.5736 2.70166 18.6028 2.04554C19.632 1.38942 20.7642 0.874823 21.9349 0.527467C22.7197 0.295896 23.5173 0.141516 24.3406 0.0643252C24.7523 0.0257301 25.1511 0.0257301 25.5628 0H74.4371C75.5178 0.0514602 75.8008 0.0257301 76.8686 0.231571C78.0779 0.463142 79.2358 0.861958 80.3293 1.42802C81.4229 1.99408 82.4263 2.70166 83.314 3.55075C83.9058 4.11681 84.4461 4.73434 84.9093 5.40332C85.1409 5.73781 85.3467 6.08517 85.5654 6.43252L98.2632 28.4189C98.4562 28.7791 98.6492 29.1393 98.8293 29.5124C99.1638 30.2586 99.4339 31.0305 99.6269 31.8281C99.9099 33.0246 100.039 34.2468 99.9743 35.4689C99.9099 36.6911 99.6784 37.9133 99.2795 39.0583C98.9193 40.0875 98.7649 40.3191 98.2632 41.2839L85.5654 63.2703C84.9736 64.1837 84.8578 64.441 84.1502 65.2644C83.3526 66.1907 82.4135 67.0012 81.3843 67.6573C80.3551 68.3134 79.2229 68.828 78.0522 69.1754C77.2674 69.4069 76.4698 69.5613 75.6465 69.6385C75.2348 69.6771 74.836 69.6771 74.4243 69.7028C58.15 69.7157 41.85 69.7157 25.5628 69.7157Z"
              fill="#66CCFF"/>
        <rect id="Rectangle" width="36" height="5" rx="2.5" transform="matrix(4.37114e-08 1 1 -4.37114e-08 39 17)"
              fill="#555555"/>
        <rect id="Rectangle_2" width="36" height="5" rx="2.5" transform="matrix(4.37114e-08 1 1 -4.37114e-08 48 17)"
              fill="#555555"/>
        <rect id="Rectangle_3" width="36" height="5" rx="2.5" transform="matrix(4.37114e-08 1 1 -4.37114e-08 57 17)"
              fill="#555555"/>
        <path id="&#239;&#139;&#177;"
              d="M29.8125 41.9556C27.9375 39.9798 27 37.6613 27 35C27 32.6613 27.75 30.5645 29.25 28.7097C30.7083 26.8952 32.6042 25.7056 34.9375 25.1411C35.3125 25.0605 35.5 24.8185 35.5 24.4153L35.5 20.9677C35.5 20.7258 35.4167 20.5242 35.25 20.3629C35.0417 20.2419 34.8333 20.2016 34.625 20.2419C31 20.9274 28 22.6411 25.625 25.3831C23.2083 28.1653 22 31.371 22 35C22 38.9919 23.4375 42.4395 26.3125 45.3427L24.0625 47.5202C23.6042 47.9637 23.5 48.4879 23.75 49.0927C24 49.6976 24.4583 50 25.125 50L33.5 50C33.9167 50 34.2708 49.8589 34.5625 49.5766C34.8542 49.2944 35 48.9516 35 48.5484L35 40.4435C35 39.7984 34.6875 39.3548 34.0625 39.1129C33.4375 38.871 32.8958 38.9718 32.4375 39.4153L29.8125 41.9556ZM66 21.4516L66 29.5564C66 30.2016 66.3125 30.6452 66.9375 30.8871C67.5625 31.129 68.1042 31.0282 68.5625 30.5847L71.1875 28.0444C73.0625 30.0202 74 32.3387 74 35C74 36.5323 73.6667 37.9839 73 39.3548C72.2917 40.7258 71.3542 41.8952 70.1875 42.8629C68.9792 43.8306 67.6042 44.496 66.0625 44.8589C65.6875 44.9395 65.5 45.1815 65.5 45.5847L65.5 49.0323C65.5 49.2742 65.6042 49.4556 65.8125 49.5766C65.9792 49.7379 66.1667 49.7984 66.375 49.7581C70 49.0726 73.0208 47.3387 75.4375 44.5565C77.8125 41.8145 79 38.629 79 35C79 31.0081 77.5625 27.5605 74.6875 24.6573L76.9375 22.4798C77.3958 22.0363 77.5 21.5121 77.25 20.9073C77 20.3024 76.5417 20 75.875 20L67.5 20C67.0833 20 66.7292 20.1411 66.4375 20.4234C66.1458 20.7056 66 21.0484 66 21.4516Z"
              fill="#555555"/>
    </g>
    <defs>
        <clipPath id="clip0_2432_126">
            <rect width="100" height="69.7157" fill="white"/>
        </clipPath>
    </defs>
</svg>
