<svg width="100" height="70" viewBox="0 0 100 70" fill="none" xmlns="http://www.w3.org/2000/svg">
    <g id="Frame" clip-path="url(#clip0_2432_262)">
        <path id="Vector" fill-rule="evenodd" clip-rule="evenodd"
              d="M87.1349 34.8514L74.4371 56.8506H25.5628L12.865 34.8514L25.5628 12.865H74.4371L87.1349 34.8514Z"
              fill="#66CCFF"/>
        <path id="Vector_2" fill-rule="evenodd" clip-rule="evenodd"
              d="M25.5628 69.7157C25.1511 69.69 24.7523 69.69 24.3406 69.6514C23.5301 69.5742 22.7197 69.4198 21.9349 69.1882C20.7642 68.8409 19.632 68.3263 18.6028 67.6701C17.5736 67.014 16.6345 66.2035 15.8369 65.2772C15.1293 64.4539 15.0006 64.1966 14.4217 63.2832L1.7239 41.2839C1.22216 40.3191 1.06778 40.0875 0.707559 39.0583C0.308743 37.9004 0.0771719 36.6911 0.0128466 35.4689C-0.0514786 34.2468 0.0771719 33.0117 0.360203 31.8281C0.553179 31.0305 0.823344 30.2586 1.15784 29.5124C1.32508 29.1393 1.53092 28.792 1.7239 28.4189L14.4217 6.43252C15.0135 5.5191 15.1293 5.2618 15.8369 4.43844C16.6345 3.51216 17.5736 2.70166 18.6028 2.04554C19.632 1.38942 20.7642 0.874823 21.9349 0.527467C22.7197 0.295896 23.5173 0.141516 24.3406 0.0643252C24.7523 0.0257301 25.1511 0.0257301 25.5628 0H74.4371C75.5178 0.0514602 75.8008 0.0257301 76.8686 0.231571C78.0779 0.463142 79.2358 0.861958 80.3293 1.42802C81.4229 1.99408 82.4263 2.70166 83.314 3.55075C83.9058 4.11681 84.4461 4.73434 84.9093 5.40332C85.1409 5.73781 85.3467 6.08517 85.5654 6.43252L98.2632 28.4189C98.4562 28.7791 98.6492 29.1393 98.8293 29.5124C99.1638 30.2586 99.4339 31.0305 99.6269 31.8281C99.9099 33.0246 100.039 34.2468 99.9743 35.4689C99.9099 36.6911 99.6784 37.9133 99.2795 39.0583C98.9193 40.0875 98.7649 40.3191 98.2632 41.2839L85.5654 63.2703C84.9736 64.1837 84.8578 64.441 84.1502 65.2644C83.3526 66.1907 82.4135 67.0012 81.3843 67.6573C80.3551 68.3134 79.2229 68.828 78.0522 69.1754C77.2674 69.4069 76.4698 69.5613 75.6465 69.6385C75.2348 69.6771 74.836 69.6771 74.4243 69.7028C58.15 69.7157 41.85 69.7157 25.5628 69.7157Z"
              fill="#FFCC22"/>
        <path id="Vector_3" fill-rule="evenodd" clip-rule="evenodd"
              d="M38.4151 39.5857C38.2607 37.9647 36.8198 36.7811 35.1988 36.9484L29.3452 37.5273C27.7242 37.6817 26.5406 39.1226 26.7079 40.7436L28.7148 61.2376C28.8692 62.8586 30.3101 64.0422 31.9311 63.8749L37.7847 63.296C39.4057 63.1416 40.5893 61.7007 40.422 60.0797L38.4151 39.5857Z"
              fill="#555555"/>
        <path id="Vector_4" fill-rule="evenodd" clip-rule="evenodd"
              d="M36.1122 44.1272C36.1508 42.5062 34.8643 41.1554 33.2433 41.1168L27.3639 40.9882C25.7429 40.9496 24.3921 42.2361 24.3535 43.8571L24.1219 54.2906C24.0833 55.9116 25.3698 57.2624 26.9908 57.301L32.8702 57.4297C34.4912 57.4683 35.842 56.1818 35.8806 54.5608L36.1122 44.1272Z"
              fill="#555555"/>
        <path id="Vector_5" fill-rule="evenodd" clip-rule="evenodd"
              d="M34.6456 55.1139L31.1206 57.4425C29.6797 56.2718 28.3289 54.9467 27.0938 53.4929C26.0775 52.2965 25.1512 50.9971 24.315 49.6077C23.4016 48.0896 22.6039 46.4558 21.9478 44.7576C21.4203 43.3682 20.9829 41.9273 20.6484 40.4607C20.3268 39.0326 20.1081 37.566 19.9923 36.0994C19.7865 33.5779 19.8894 31.0048 20.2882 28.5219C20.6227 26.4635 21.163 24.4437 21.8835 22.5268C22.3338 21.3303 22.8612 20.1596 23.4401 19.0532L26.3991 21.4204C25.9231 22.3338 25.4986 23.2987 25.1255 24.2893C24.5208 25.9232 24.0705 27.6213 23.7875 29.371C23.453 31.4551 23.3758 33.5907 23.5431 35.7006C23.646 36.9485 23.8261 38.1707 24.0963 39.38C24.3793 40.6279 24.7524 41.8501 25.2027 43.0208C25.7559 44.4746 26.4377 45.864 27.2225 47.1762C27.9429 48.3727 28.7405 49.4919 29.6154 50.534C29.8984 50.8685 30.1943 51.203 30.4902 51.5246C31.7767 52.8883 33.179 54.0847 34.6456 55.1139Z"
              fill="#555555"/>
        <path id="Vector_6" fill-rule="evenodd" clip-rule="evenodd"
              d="M61.4819 39.5857C61.6363 37.9647 63.0772 36.7811 64.6982 36.9484L70.5518 37.5273C72.1728 37.6817 73.3564 39.1226 73.1892 40.7436L71.1822 61.2376C71.0278 62.8586 69.5869 64.0422 67.9659 63.8749L62.1123 63.296C60.4913 63.1416 59.3077 61.7007 59.475 60.0797L61.4819 39.5857Z"
              fill="#555555"/>
        <path id="Vector_7" fill-rule="evenodd" clip-rule="evenodd"
              d="M63.785 44.1272C63.7464 42.5062 65.0329 41.1554 66.6539 41.1168L72.5333 40.9882C74.1543 40.9496 75.5051 42.2361 75.5437 43.8571L75.7752 54.2906C75.8138 55.9116 74.5273 57.2624 72.9063 57.301L67.027 57.4297C65.406 57.4683 64.0552 56.1818 64.0166 54.5608L63.785 44.1272Z"
              fill="#555555"/>
        <path id="Vector_8" fill-rule="evenodd" clip-rule="evenodd"
              d="M65.2515 55.1139L68.7765 57.4425C70.2174 56.2718 71.5682 54.9467 72.8033 53.4929C73.8196 52.2965 74.7459 50.9971 75.5821 49.6077C76.4955 48.0896 77.2932 46.4558 77.9493 44.7576C78.4767 43.3682 78.9141 41.9273 79.2486 40.4607C79.5703 39.0326 79.789 37.566 79.9048 36.0994C80.1106 33.5779 80.0077 31.0048 79.6089 28.5219C79.2744 26.4635 78.734 24.4437 78.0136 22.5268C77.5633 21.3303 77.0358 20.1596 76.4569 19.0532L73.498 21.4204C73.974 22.3338 74.3985 23.2987 74.7716 24.2893C75.3763 25.9232 75.8265 27.6213 76.1096 29.371C76.4441 31.4551 76.5212 33.5907 76.354 35.7006C76.2511 36.9485 76.071 38.1707 75.8008 39.38C75.5178 40.6279 75.1447 41.8501 74.6944 43.0208C74.1412 44.4746 73.4594 45.864 72.6746 47.1762C71.9542 48.3727 71.1565 49.4919 70.2817 50.534C69.9987 50.8685 69.7028 51.203 69.4069 51.5246C68.1204 52.8883 66.7181 54.0847 65.2515 55.1139Z"
              fill="#555555"/>
        <path id="Vector_9" fill-rule="evenodd" clip-rule="evenodd"
              d="M27.6598 28.0587L21.6003 32.2655C21.7419 31.4293 21.9091 30.6059 22.1021 29.7955C22.4108 28.5089 22.7968 27.2482 23.2471 26.0131C23.6845 24.8167 24.1734 23.6588 24.7394 22.5396C25.6271 20.7385 26.6692 19.0403 27.8528 17.4579C29.0363 15.8626 30.3614 14.396 31.8023 13.0838C33.0116 11.9774 34.311 10.9739 35.6747 10.0991C37.0255 9.23712 38.4278 8.49094 39.8816 7.87342C41.5283 7.17871 43.2265 6.66411 44.9504 6.31675C46.5714 5.99513 48.2181 5.82788 49.8649 5.82788C51.5116 5.82788 53.1712 5.9694 54.7922 6.27816C56.5547 6.61265 58.2786 7.14012 59.951 7.83483C61.4305 8.45235 62.8585 9.21139 64.2351 10.0862C65.5859 10.961 66.8853 11.9645 68.1075 13.0709C69.4969 14.3445 70.7834 15.7597 71.9413 17.3035C73.1377 18.8988 74.2055 20.6227 75.1189 22.4495C75.6979 23.5945 76.1996 24.7909 76.6499 26.0131C77.0873 27.2096 77.4604 28.4446 77.7691 29.7054C77.975 30.5545 78.1551 31.4036 78.2966 32.2784L72.2372 28.0715C71.9155 27.1838 71.5553 26.3348 71.1565 25.4985C70.4232 23.9676 69.5484 22.5138 68.5578 21.163C67.58 19.825 66.4736 18.5771 65.29 17.4707C64.2608 16.5187 63.1673 15.6568 62.0223 14.8977C60.9417 14.1902 59.8224 13.5855 58.6645 13.0838C57.2494 12.4662 55.7956 12.0031 54.3033 11.6943C52.9267 11.4113 51.5116 11.2698 50.1093 11.2569C48.6555 11.2441 47.1889 11.3856 45.748 11.6686C44.2557 11.9645 42.7891 12.4148 41.3739 13.0194C40.2161 13.5212 39.0839 14.113 38.0033 14.8205C36.8454 15.5667 35.7519 16.4158 34.7227 17.3678C33.552 18.4485 32.4584 19.6578 31.4807 20.97C30.4515 22.3466 29.5509 23.8389 28.779 25.4213C28.3674 26.2833 27.9814 27.171 27.6598 28.0587Z"
              fill="#555555"/>
    </g>
    <defs>
        <clipPath id="clip0_2432_262">
            <rect width="100" height="69.7157" fill="white"/>
        </clipPath>
    </defs>
</svg>
