<svg width="100" height="70" viewBox="0 0 100 70" fill="none" xmlns="http://www.w3.org/2000/svg">
    <g id="Frame" clip-path="url(#clip0_2432_272)">
        <path id="Vector" fill-rule="evenodd" clip-rule="evenodd"
              d="M87.1349 34.8514L74.4371 56.8506H25.5628L12.865 34.8514L25.5628 12.865H74.4371L87.1349 34.8514Z"
              fill="#66CCFF"/>
        <path id="Vector_2" fill-rule="evenodd" clip-rule="evenodd"
              d="M25.5628 69.7157C25.1511 69.69 24.7523 69.69 24.3406 69.6514C23.5301 69.5742 22.7197 69.4198 21.9349 69.1882C20.7642 68.8409 19.632 68.3263 18.6028 67.6701C17.5736 67.014 16.6345 66.2035 15.8369 65.2772C15.1293 64.4539 15.0006 64.1966 14.4217 63.2832L1.7239 41.2839C1.22216 40.3191 1.06778 40.0875 0.707559 39.0583C0.308743 37.9004 0.0771719 36.6911 0.0128466 35.4689C-0.0514786 34.2468 0.0771719 33.0117 0.360203 31.8281C0.553179 31.0305 0.823344 30.2586 1.15784 29.5124C1.32508 29.1393 1.53092 28.792 1.7239 28.4189L14.4217 6.43252C15.0135 5.5191 15.1293 5.2618 15.8369 4.43844C16.6345 3.51216 17.5736 2.70166 18.6028 2.04554C19.632 1.38942 20.7642 0.874823 21.9349 0.527467C22.7197 0.295896 23.5173 0.141516 24.3406 0.0643252C24.7523 0.0257301 25.1511 0.0257301 25.5628 0H74.4371C75.5178 0.0514602 75.8008 0.0257301 76.8686 0.231571C78.0779 0.463142 79.2358 0.861958 80.3293 1.42802C81.4229 1.99408 82.4263 2.70166 83.314 3.55075C83.9058 4.11681 84.4461 4.73434 84.9093 5.40332C85.1409 5.73781 85.3467 6.08517 85.5654 6.43252L98.2632 28.4189C98.4562 28.7791 98.6492 29.1393 98.8293 29.5124C99.1638 30.2586 99.4339 31.0305 99.6269 31.8281C99.9099 33.0246 100.039 34.2468 99.9743 35.4689C99.9099 36.6911 99.6784 37.9133 99.2795 39.0583C98.9193 40.0875 98.7649 40.3191 98.2632 41.2839L85.5654 63.2703C84.9736 64.1837 84.8578 64.441 84.1502 65.2644C83.3526 66.1907 82.4135 67.0012 81.3843 67.6573C80.3551 68.3134 79.2229 68.828 78.0522 69.1754C77.2674 69.4069 76.4698 69.5613 75.6465 69.6385C75.2348 69.6771 74.836 69.6771 74.4243 69.7028C58.15 69.7157 41.85 69.7157 25.5628 69.7157Z"
              fill="#A5CC00"/>
        <path id="Vector_3"
              d="M66.6538 40.6149C67.2714 38.7881 67.6187 36.8455 67.6187 34.8514C67.6187 32.8573 67.2714 30.9147 66.6538 29.0879L73.3565 22.3852C75.3249 26.116 76.4699 30.3615 76.4699 34.8514C76.4699 39.3413 75.3249 43.5868 73.3565 47.3176L66.6538 40.6149ZM49.9421 48.1153C42.6219 48.1153 36.6783 42.1716 36.6783 34.8514C36.6783 27.5312 42.6219 21.5875 49.9421 21.5875C57.2624 21.5875 63.206 27.5312 63.206 34.8514C63.206 42.1716 57.2624 48.1153 49.9421 48.1153ZM49.9421 61.3663C45.4522 61.3663 41.2068 60.2213 37.4759 58.2529L44.1786 51.5502C46.0054 52.1678 47.9481 52.5151 49.9421 52.5151C51.9748 52.5151 53.8788 52.1678 55.7057 51.5502L62.4084 58.2529C58.6775 60.2341 54.432 61.3663 49.9421 61.3663ZM26.5406 47.3176C24.5723 43.5868 23.4273 39.3413 23.4273 34.8514C23.4273 30.3615 24.5723 26.116 26.5406 22.3852L33.2433 29.0879C32.6258 30.9147 32.2784 32.8187 32.2784 34.8514C32.2784 36.8583 32.6258 38.7881 33.2433 40.6149L26.5406 47.3176ZM49.9421 8.33654C54.432 8.33654 58.6775 9.48153 62.4084 11.4499L55.7186 18.1397C53.8917 17.5222 51.9877 17.1748 49.955 17.1748C47.9481 17.1748 46.0183 17.5222 44.1915 18.1397L37.4759 11.4499C41.2068 9.48153 45.4522 8.33654 49.9421 8.33654ZM49.9421 3.92383C32.8445 3.92383 19.0017 17.7666 19.0017 34.8643C19.0017 51.9619 32.8445 65.8047 49.9421 65.8047C67.0398 65.8047 80.8826 51.9619 80.8826 34.8643C80.8826 17.7666 67.0398 3.92383 49.9421 3.92383Z"
              fill="#555555"/>
    </g>
    <defs>
        <clipPath id="clip0_2432_272">
            <rect width="100" height="69.7157" fill="white"/>
        </clipPath>
    </defs>
</svg>
