<svg width="100" height="70" viewBox="0 0 100 70" fill="none" xmlns="http://www.w3.org/2000/svg">
    <g id="Frame" clip-path="url(#clip0_2432_276)">
        <path id="Vector" fill-rule="evenodd" clip-rule="evenodd"
              d="M25.5628 69.7157C25.1511 69.69 24.7523 69.69 24.3406 69.6514C23.5301 69.5742 22.7197 69.4198 21.9349 69.1882C20.7642 68.8409 19.632 68.3263 18.6028 67.6701C17.5736 67.014 16.6345 66.2035 15.8369 65.2772C15.1293 64.4539 15.0006 64.1966 14.4217 63.2832L1.7239 41.2839C1.22216 40.3191 1.06778 40.0875 0.707559 39.0583C0.308743 37.9004 0.0771719 36.6911 0.0128466 35.4689C-0.0514786 34.2468 0.0771719 33.0117 0.360203 31.8281C0.553179 31.0305 0.823344 30.2586 1.15784 29.5124C1.32508 29.1393 1.53092 28.792 1.7239 28.4189L14.4217 6.43252C15.0135 5.5191 15.1293 5.2618 15.8369 4.43844C16.6345 3.51216 17.5736 2.70166 18.6028 2.04554C19.632 1.38942 20.7642 0.874823 21.9349 0.527467C22.7197 0.295896 23.5173 0.141516 24.3406 0.0643252C24.7523 0.0257301 25.1511 0.0257301 25.5628 0H74.4371C75.5178 0.0514602 75.8008 0.0257301 76.8686 0.231571C78.0779 0.463142 79.2358 0.861958 80.3293 1.42802C81.4229 1.99408 82.4263 2.70166 83.314 3.55075C83.9058 4.11681 84.4461 4.73434 84.9093 5.40332C85.1409 5.73781 85.3467 6.08517 85.5654 6.43252L98.2632 28.4189C98.4562 28.7791 98.6492 29.1393 98.8293 29.5124C99.1638 30.2586 99.4339 31.0305 99.6269 31.8281C99.9099 33.0246 100.039 34.2468 99.9743 35.4689C99.9099 36.6911 99.6784 37.9133 99.2795 39.0583C98.9193 40.0875 98.7649 40.3191 98.2632 41.2839L85.5654 63.2703C84.9736 64.1837 84.8578 64.441 84.1502 65.2644C83.3526 66.1907 82.4135 67.0012 81.3843 67.6573C80.3551 68.3134 79.2229 68.828 78.0522 69.1754C77.2674 69.4069 76.4698 69.5613 75.6465 69.6385C75.2348 69.6771 74.836 69.6771 74.4243 69.7028C58.15 69.7157 41.85 69.7157 25.5628 69.7157Z"
              fill="#FFCC22"/>
        <path id="Vector_2"
              d="M37.7846 53.1199C37.7846 54.2262 36.8711 55.1525 35.7519 55.1525H26.6306C25.5242 55.1525 24.5979 54.2391 24.5979 53.1199V32.8317C24.5979 31.7253 25.5113 30.799 26.6306 30.799H35.7519C36.8583 30.799 37.7846 31.7124 37.7846 32.8317V53.1199ZM30.6831 47.0347C29.5381 47.0347 28.6504 47.9481 28.6504 49.0674C28.6504 50.2124 29.5381 51.1 30.6831 51.1C31.7895 51.1 32.7157 50.2124 32.7157 49.0674C32.7157 47.9481 31.7895 47.0347 30.6831 47.0347ZM73.5494 37.5531C73.8967 38.5695 74.0254 39.5215 74.0254 39.9589C74.0897 41.5413 73.6137 43.0337 72.6617 44.2944C73.009 45.4652 73.009 46.7388 72.6617 47.9996C72.3401 49.1703 71.7483 50.2124 70.9506 50.9843C71.1436 53.3643 70.6033 55.294 69.394 56.7221C68.0303 58.3431 65.9461 59.1664 63.1544 59.1922H62.0094H59.6037H59.0634C54.5349 59.1922 50.2508 57.6998 46.8287 56.5291C44.8346 55.8344 42.9306 55.1654 41.8242 55.1397C40.7435 55.1139 39.7915 54.2263 39.7915 53.107V32.8059C39.7915 31.7639 40.6792 30.8762 41.7213 30.7733C42.892 30.6832 45.941 26.9138 47.3304 25.0741C48.4754 23.6203 49.5432 22.2566 50.5338 21.266C51.7689 20.031 52.1162 18.1269 52.5022 16.2872C52.8495 14.4218 53.2355 12.4534 54.5992 11.1283C54.9851 10.7424 55.4869 10.5237 56.0272 10.5237C63.1287 10.5237 63.1287 16.1972 63.1287 18.6287C63.1287 21.2274 62.2153 23.0671 61.3533 24.7138C61.006 25.4085 60.6843 25.7302 60.4399 26.7465H69.2139C72.5073 26.7465 75.299 29.5382 75.299 32.8317C75.299 34.517 74.63 36.3181 73.5494 37.5531Z"
              fill="#555555"/>
    </g>
    <defs>
        <clipPath id="clip0_2432_276">
            <rect width="100" height="69.7157" fill="white"/>
        </clipPath>
    </defs>
</svg>
