<svg width="100" height="70" viewBox="0 0 100 70" fill="none" xmlns="http://www.w3.org/2000/svg">
    <g id="Frame" clip-path="url(#clip0_2432_97)">
        <g id="Group">
            <path id="Vector" fill-rule="evenodd" clip-rule="evenodd"
                  d="M87.1349 34.8514L74.4371 56.8506H25.5628L12.865 34.8514L25.5628 12.865H74.4371L87.1349 34.8514Z"
                  fill="#66CCFF"/>
        </g>
        <g id="Group_2">
            <path id="Vector_2" fill-rule="evenodd" clip-rule="evenodd"
                  d="M25.5628 69.7157C25.1511 69.69 24.7523 69.69 24.3406 69.6514C23.5301 69.5742 22.7197 69.4198 21.9349 69.1882C20.7642 68.8409 19.632 68.3263 18.6028 67.6701C17.5736 67.014 16.6345 66.2035 15.8369 65.2772C15.1293 64.4539 15.0006 64.1966 14.4217 63.2832L1.7239 41.2839C1.22216 40.3191 1.06778 40.0875 0.707559 39.0583C0.308743 37.9004 0.0771719 36.6911 0.0128466 35.4689C-0.0514786 34.2468 0.0771719 33.0117 0.360203 31.8281C0.553179 31.0305 0.823344 30.2586 1.15784 29.5124C1.32508 29.1393 1.53092 28.792 1.7239 28.4189L14.4217 6.43252C15.0135 5.5191 15.1293 5.2618 15.8369 4.43844C16.6345 3.51216 17.5736 2.70166 18.6028 2.04554C19.632 1.38942 20.7642 0.874823 21.9349 0.527467C22.7197 0.295896 23.5173 0.141516 24.3406 0.0643252C24.7523 0.0257301 25.1511 0.0257301 25.5628 0H74.4371C75.5178 0.0514602 75.8008 0.0257301 76.8686 0.231571C78.0779 0.463142 79.2358 0.861958 80.3293 1.42802C81.4229 1.99408 82.4263 2.70166 83.314 3.55075C83.9058 4.11681 84.4461 4.73434 84.9093 5.40332C85.1409 5.73781 85.3467 6.08517 85.5654 6.43252L98.2632 28.4189C98.4562 28.7791 98.6492 29.1393 98.8293 29.5124C99.1638 30.2586 99.4339 31.0305 99.6269 31.8281C99.9099 33.0246 100.039 34.2468 99.9743 35.4689C99.9099 36.6911 99.6784 37.9133 99.2795 39.0583C98.9193 40.0875 98.7649 40.3191 98.2632 41.2839L85.5654 63.2703C84.9736 64.1837 84.8578 64.441 84.1502 65.2644C83.3526 66.1907 82.4135 67.0012 81.3843 67.6573C80.3551 68.3134 79.2229 68.828 78.0522 69.1754C77.2674 69.4069 76.4698 69.5613 75.6465 69.6385C75.2348 69.6771 74.836 69.6771 74.4243 69.7028C58.15 69.7157 41.85 69.7157 25.5628 69.7157Z"
                  fill="#66CCFF"/>
        </g>
        <g id="Group_3">
            <g id="Group_4">
                <path id="Vector_3"
                      d="M36.7296 49.6206H24.2248C22.4494 49.6206 21.0085 48.1797 21.0085 46.4043C21.0085 44.6289 22.4494 43.1881 24.2248 43.1881H34.0666L57.3008 19.9409H72.4945C74.2698 19.9409 75.7107 21.3818 75.7107 23.1572C75.7107 24.9326 74.2698 26.3734 72.4945 26.3734H59.9639L36.7296 49.6206Z"
                      fill="#555555"/>
            </g>
            <g id="Group_5">
                <path id="Vector_4"
                      d="M46.5714 37.9906C45.7223 37.9906 44.8861 37.6561 44.2557 37L34.028 26.3734H24.2248C22.4494 26.3734 21.0085 24.9326 21.0085 23.1572C21.0085 21.3818 22.4494 19.9409 24.2248 19.9409H36.7682L48.8871 32.5487C50.1221 33.8352 50.0835 35.8678 48.797 37.09C48.1667 37.6947 47.369 37.9906 46.5714 37.9906Z"
                      fill="#555555"/>
            </g>
            <g id="Group_6">
                <path id="Vector_5"
                      d="M72.4945 49.6205H57.3009L50.4309 42.7505C49.1702 41.4898 49.1702 39.4571 50.4309 38.1963C51.6917 36.9355 53.7244 36.9355 54.9852 38.1963L59.9639 43.1751H72.4945C74.2698 43.1751 75.7107 44.616 75.7107 46.3913C75.7107 48.1796 74.2698 49.6205 72.4945 49.6205Z"
                      fill="#555555"/>
            </g>
            <g id="Group_7">
                <path id="Vector_6"
                      d="M69.3297 33.076C68.5063 33.076 67.683 32.7673 67.0526 32.1369C65.7918 30.8761 65.7918 28.8434 67.0526 27.5826L71.1308 23.5044L66.6409 19.0274C65.3801 17.7666 65.3801 15.7339 66.6409 14.4732C67.9017 13.2124 69.9344 13.2124 71.1951 14.4732L80.2264 23.5044L71.6068 32.124C70.9764 32.7673 70.1531 33.076 69.3297 33.076Z"
                      fill="#555555"/>
            </g>
            <g id="Group_8">
                <path id="Vector_7"
                      d="M69.3297 56.1688C68.5063 56.1688 67.683 55.86 67.0526 55.2296C65.7918 53.9689 65.7918 51.9362 67.0526 50.6754L71.1308 46.5972L66.6409 42.1202C65.3801 40.8594 65.3801 38.8267 66.6409 37.5659C67.9017 36.3052 69.9344 36.3052 71.1951 37.5659L80.2264 46.5972L71.6068 55.2168C70.9764 55.86 70.1531 56.1688 69.3297 56.1688Z"
                      fill="#555555"/>
            </g>
        </g>
    </g>
    <defs>
        <clipPath id="clip0_2432_97">
            <rect width="100" height="69.7157" fill="white"/>
        </clipPath>
    </defs>
</svg>
