<svg width="100" height="70" viewBox="0 0 100 70" fill="none" xmlns="http://www.w3.org/2000/svg">
    <g id="Frame" clip-path="url(#clip0_2432_296)">
        <g id="Group">
            <path id="Vector" fill-rule="evenodd" clip-rule="evenodd"
                  d="M87.1349 34.8514L74.4371 56.8506H25.5628L12.865 34.8514L25.5628 12.865H74.4371L87.1349 34.8514Z"
                  fill="#66CCFF"/>
        </g>
        <g id="Group_2">
            <path id="Vector_2" fill-rule="evenodd" clip-rule="evenodd"
                  d="M25.5628 69.7157C25.1511 69.69 24.7523 69.69 24.3406 69.6514C23.5301 69.5742 22.7197 69.4198 21.9349 69.1882C20.7642 68.8409 19.632 68.3263 18.6028 67.6701C17.5736 67.014 16.6345 66.2035 15.8369 65.2772C15.1293 64.4539 15.0006 64.1966 14.4217 63.2832L1.7239 41.2839C1.22216 40.3191 1.06778 40.0875 0.707559 39.0583C0.308743 37.9004 0.0771719 36.6911 0.0128466 35.4689C-0.0514786 34.2468 0.0771719 33.0117 0.360203 31.8281C0.553179 31.0305 0.823344 30.2586 1.15784 29.5124C1.32508 29.1393 1.53092 28.792 1.7239 28.4189L14.4217 6.43252C15.0135 5.5191 15.1293 5.2618 15.8369 4.43844C16.6345 3.51216 17.5736 2.70166 18.6028 2.04554C19.632 1.38942 20.7642 0.874823 21.9349 0.527467C22.7197 0.295896 23.5173 0.141516 24.3406 0.0643252C24.7523 0.0257301 25.1511 0.0257301 25.5628 0H74.4371C75.5178 0.0514602 75.8008 0.0257301 76.8686 0.231571C78.0779 0.463142 79.2358 0.861958 80.3293 1.42802C81.4229 1.99408 82.4263 2.70166 83.314 3.55075C83.9058 4.11681 84.4461 4.73434 84.9093 5.40332C85.1409 5.73781 85.3467 6.08517 85.5654 6.43252L98.2632 28.4189C98.4562 28.7791 98.6492 29.1393 98.8293 29.5124C99.1638 30.2586 99.4339 31.0305 99.6269 31.8281C99.9099 33.0246 100.039 34.2468 99.9743 35.4689C99.9099 36.6911 99.6784 37.9133 99.2795 39.0583C98.9193 40.0875 98.7649 40.3191 98.2632 41.2839L85.5654 63.2703C84.9736 64.1837 84.8578 64.441 84.1502 65.2644C83.3526 66.1907 82.4135 67.0012 81.3843 67.6573C80.3551 68.3134 79.2229 68.828 78.0522 69.1754C77.2674 69.4069 76.4698 69.5613 75.6465 69.6385C75.2348 69.6771 74.836 69.6771 74.4243 69.7028C58.15 69.7157 41.85 69.7157 25.5628 69.7157Z"
                  fill="#66CCFF"/>
        </g>
        <g id="Group_3">
            <path id="Vector_3"
                  d="M40.9109 33.1405C40.4349 33.1405 39.9846 32.8832 39.753 32.4201L26.2704 5.26193C25.9488 4.63155 26.219 3.85964 26.8494 3.53802C27.4798 3.21639 28.2517 3.48656 28.5733 4.11694L42.0687 31.2751C42.3903 31.9055 42.1202 32.6774 41.4898 32.999C41.2968 33.089 41.1038 33.1405 40.9109 33.1405Z"
                  fill="#555555"/>
        </g>
        <g id="Group_4">
            <path id="Vector_4"
                  d="M77.7315 25.9217C78.806 19.301 74.3099 13.0627 67.6891 11.9882C61.0684 10.9137 54.8301 15.4099 53.7556 22.0306C52.6811 28.6514 57.1772 34.8896 63.798 35.9641C70.4187 37.0386 76.657 32.5425 77.7315 25.9217Z"
                  fill="#555555"/>
        </g>
        <g id="Group_5">
            <path id="Vector_5"
                  d="M67.2841 23.453C67.2841 22.1793 65.6759 21.9478 64.7239 21.9478H28.2901C27.3381 21.9478 25.73 22.1793 25.73 23.453C25.73 24.1991 26.3218 24.9582 26.8492 25.4728L43.2007 41.8242V61.7007H34.9156C34.0151 61.7007 33.256 62.4469 33.256 63.3603C33.256 64.2738 34.0022 65.0199 34.9156 65.0199H58.1113C59.0119 65.0199 59.7709 64.2738 59.7709 63.3603C59.7709 62.4469 59.0247 61.7007 58.1113 61.7007H49.8262V41.8242L66.1777 25.4728C66.6923 24.9453 67.2841 24.1991 67.2841 23.453Z"
                  fill="#555555"/>
        </g>
        <g id="Group_6">
            <path id="Vector_6" fill-rule="evenodd" clip-rule="evenodd"
                  d="M34.9156 65.0199H58.1113H58.137H58.1628H58.1885H58.2142H58.24H58.2657H58.2914H58.3172H58.3429H58.3686H58.3943H58.4201H58.4458H58.4715H58.4973H58.523H58.5487H58.5745H58.6002H58.6259H58.6516H58.6774H58.7031H58.7288H58.7546L58.7674 65.007L58.7803 64.9941L58.7932 64.9813L58.806 64.9684L58.8189 64.9555L58.8318 64.9427L58.8446 64.9298L58.8575 64.9169L58.8704 64.9041L58.8832 64.8912L58.8961 64.8783L58.9089 64.8655L58.9218 64.8526L58.9347 64.8397L58.9475 64.8269L58.9604 64.814L58.9733 64.8012L58.9861 64.7883L58.999 64.7754L59.0119 64.7626L59.0247 64.7497L59.0376 64.7368L59.0505 64.724L59.0633 64.7111L59.0762 64.6982L59.0891 64.6854L59.1019 64.6725L59.1148 64.6596L59.1277 64.6468L59.1405 64.6339L59.1534 64.621L59.1662 64.6082L59.1791 64.5953L59.192 64.5824L59.2048 64.5696L59.2177 64.5567L59.2306 64.5439L59.2434 64.531L59.2563 64.5181L59.2692 64.5053L59.282 64.4924L59.2949 64.4795L59.3078 64.4667L59.3206 64.4538L59.3335 64.4409L59.3464 64.4281L59.3592 64.4152L59.3721 64.4023L59.385 64.3895L59.3978 64.3766L59.4107 64.3637L59.4235 64.3509L59.4364 64.338L59.4493 64.3251L59.4621 64.3123L59.475 64.2994L59.4879 64.2866L59.5007 64.2737L59.5136 64.2608L59.5265 64.248L59.5393 64.2351L59.5522 64.2222L59.5651 64.2094L59.5779 64.1965L59.5908 64.1836L59.6037 64.1708L59.6165 64.1579L59.6294 64.145L59.6423 64.1322L59.6551 64.1193L59.668 64.1064L59.6809 64.0936L59.6937 64.0807L59.7066 64.0678L59.7194 64.055L59.7323 64.0421L59.7452 64.0293L59.758 64.0164V63.9907V63.9649V63.9392V63.9135V63.8877V63.862V63.8363V63.8105V63.7848V63.7591V63.7333V63.7076V63.6819V63.6562V63.6304V63.6047V63.579V63.5532V63.5275V63.5018V63.476V63.4503V63.4246V63.3989V63.3731V63.3474V63.3217V63.2959V63.2702V63.2445V63.2188V63.193V63.1673V63.1416V63.1158V63.0901V63.0644V63.0386V63.0129V62.9872V62.9614V62.9357V62.91V62.8843V62.8585V62.8328V62.8071V62.7813V62.7556V62.7299L59.7452 62.717L59.7323 62.7041L59.7194 62.6913L59.7066 62.6784L59.6937 62.6656L59.6809 62.6527L59.668 62.6398L59.6551 62.627L59.6423 62.6141L59.6294 62.6012L59.6165 62.5884L59.6037 62.5755L59.5908 62.5626L59.5779 62.5498L59.5651 62.5369L59.5522 62.524L59.5393 62.5112L59.5265 62.4983L59.5136 62.4854L59.5007 62.4726L59.4879 62.4597L59.475 62.4468L59.4621 62.434L59.4493 62.4211L59.4364 62.4083L59.4235 62.3954L59.4107 62.3825L59.3978 62.3697L59.385 62.3568L59.3721 62.3439L59.3592 62.3311L59.3464 62.3182L59.3335 62.3053L59.3206 62.2925L59.3078 62.2796L59.2949 62.2667L59.282 62.2539L59.2692 62.241L59.2563 62.2281L59.2434 62.2153L59.2306 62.2024L59.2177 62.1895L59.2048 62.1767L59.192 62.1638L59.1791 62.151L59.1662 62.1381L59.1534 62.1252L59.1405 62.1124L59.1277 62.0995L59.1148 62.0866L59.1019 62.0738L59.0891 62.0609L59.0762 62.048L59.0633 62.0352L59.0505 62.0223L59.0376 62.0094L59.0247 61.9966L59.0119 61.9837L58.999 61.9708L58.9861 61.958L58.9733 61.9451L58.9604 61.9322L58.9475 61.9194L58.9347 61.9065L58.9218 61.8937L58.9089 61.8808L58.8961 61.8679L58.8832 61.8551L58.8704 61.8422L58.8575 61.8293L58.8446 61.8165L58.8318 61.8036L58.8189 61.7907L58.806 61.7779L58.7932 61.765L58.7803 61.7521L58.7674 61.7393L58.7546 61.7264H58.7288H58.7031H58.6774H58.6516H58.6259H58.6002H58.5745H58.5487H58.523H58.4973H58.4715H58.4458H58.4201H58.3943H58.3686H58.3429H58.3172H58.2914H58.2657H58.24H58.2142H58.1885H58.1628H58.137H58.1113H49.8262V41.8242L66.1777 25.4727L66.2034 25.447L66.2292 25.4212L66.2549 25.3955L66.2806 25.3698L66.3064 25.344L66.3321 25.3183L66.3578 25.2926L66.3835 25.2669L66.4093 25.2411L66.435 25.2154L66.4607 25.1897L66.4865 25.1639L66.5122 25.1382L66.5379 25.1125L66.5637 25.0867L66.5894 25.061L66.6151 25.0353L66.6408 25.0096L66.6666 24.9838L66.6923 24.9581L66.718 24.9324L66.7438 24.9066L66.7695 24.8809L66.7952 24.8552L66.821 24.8294L66.8467 24.8037L66.8724 24.778L66.8981 24.7523L66.9239 24.7265L66.9367 24.7137L66.9496 24.7008L66.9625 24.6879L66.9753 24.6751L66.9882 24.6622L67.0011 24.6493L67.0139 24.6365L67.0268 24.6236L67.0397 24.6107L67.0525 24.5979L67.0654 24.585L67.0783 24.5721L67.0911 24.5593L67.104 24.5464L67.1169 24.5335L67.1297 24.5207L67.1426 24.5078L67.1554 24.4949L67.1683 24.4821L67.1812 24.4692L67.194 24.4564L67.2069 24.4435L67.2198 24.4306L67.2326 24.4178L67.2455 24.4049L67.2584 24.392L67.2712 24.3792L67.2841 24.3663L67.297 24.3534L67.3098 24.3406L67.3227 24.3277L67.3356 24.3148L67.3484 24.302L67.3613 24.2891L67.3741 24.2762V24.2634V24.2505V24.2376V24.2248V24.2119V24.1991V24.1862V24.1733V24.1605V24.1476V24.1347V24.1219V24.109V24.0961V24.0833V24.0704V24.0575V24.0447V24.0318V24.0189V24.0061V23.9932V23.9803V23.9675V23.9546V23.9418V23.9289V23.916V23.9032V23.8903V23.8774V23.8646V23.8517V23.8388V23.826V23.8131V23.8002V23.7874V23.7745V23.7616V23.7488V23.7359V23.723V23.7102V23.6973V23.6845V23.6716V23.6587V23.6459V23.633V23.6201V23.6073V23.5944V23.5815V23.5687V23.5558V23.5429V23.5301V23.5172V23.5043V23.4915V23.4786V23.4657V23.4529V23.44V23.4272V23.4143V23.4014V23.3886V23.3757V23.3628V23.35V23.3371V23.3242V23.3114V23.2985V23.2856V23.2728V23.2599V23.247V23.2342V23.2213V23.2084V23.1956V23.1827V23.1699L67.3613 23.157L67.3484 23.1441L67.3356 23.1313L67.3227 23.1184L67.3098 23.1055L67.297 23.0927L67.2841 23.0798L67.2712 23.0669L67.2584 23.0541L67.2455 23.0412L67.2326 23.0283L67.2198 23.0155L67.2069 23.0026L67.194 22.9897L67.1812 22.9769L67.1683 22.964L67.1554 22.9511L67.1426 22.9383L67.1297 22.9254L67.1169 22.9125L67.104 22.8997L67.0911 22.8868L67.0783 22.874L67.0654 22.8611L67.0525 22.8482L67.0397 22.8354L67.0268 22.8225L67.0139 22.8096L67.0011 22.7968L66.9882 22.7839L66.9753 22.771L66.9625 22.7582L66.9496 22.7453L66.9367 22.7324L66.9239 22.7196L66.911 22.7067L66.8981 22.6938L66.8853 22.681L66.8724 22.6681L66.8596 22.6552L66.8467 22.6424L66.8338 22.6295L66.821 22.6167L66.7952 22.6038L66.7695 22.5909L66.7438 22.5781L66.718 22.5652L66.6923 22.5523L66.6666 22.5395L66.6408 22.5266L66.6151 22.5137L66.5894 22.5009L66.5637 22.488L66.5379 22.4751L66.5122 22.4623L66.4865 22.4494L66.4607 22.4365L66.435 22.4237L66.4093 22.4108L66.3835 22.3979L66.3578 22.3851L66.3321 22.3722L66.3064 22.3594L66.2806 22.3465L66.2549 22.3336L66.2292 22.3208L66.2034 22.3079L66.1777 22.295L66.152 22.2822L66.1262 22.2693L66.1005 22.2564L66.0748 22.2436L66.0491 22.2307L66.0233 22.2178L65.9976 22.205L65.9719 22.1921L65.9461 22.1792L65.9204 22.1664H65.8947H65.8689H65.8432H65.8175H65.7917H65.766H65.7403H65.7146H65.6888H65.6631H65.6374H65.6116H65.5859H65.5602H65.5344H65.5087H65.483H65.4573H65.4315H65.4058H65.3801H65.3543H65.3286H65.3029H65.2771H65.2514H65.2257H65.2H65.1742H65.1485H65.1228H65.097H65.0713H65.0456H65.0198H64.9941H64.9684H64.9427H64.9169H64.8912H64.8397H64.7883H64.7368H28.2901H28.2387H28.1872H28.1358H28.11H28.0843H28.0586H28.0328H28.0071H27.9814H27.9556H27.9299H27.9042H27.8785H27.8527H27.827H27.8013H27.7755H27.7498H27.7241H27.6983H27.6726H27.6469H27.6212H27.5954H27.5697H27.544H27.5182H27.4925H27.4668H27.441H27.4153H27.3896H27.3639H27.3381H27.3124H27.2867H27.2609H27.2352H27.2095H27.1837H27.158H27.1323H27.1066L27.0808 22.1792L27.0551 22.1921L27.0294 22.205L27.0036 22.2178L26.9779 22.2307L26.9522 22.2436L26.9264 22.2564L26.9007 22.2693L26.875 22.2822L26.8493 22.295L26.8235 22.3079L26.7978 22.3208L26.7721 22.3336L26.7463 22.3465L26.7206 22.3594L26.6949 22.3722L26.6691 22.3851L26.6434 22.3979L26.6177 22.4108L26.5919 22.4237L26.5662 22.4365L26.5405 22.4494L26.5148 22.4623L26.489 22.4751L26.4633 22.488L26.4376 22.5009L26.4118 22.5137L26.3861 22.5266L26.3604 22.5395L26.3346 22.5523L26.3089 22.5652L26.2832 22.5781L26.2575 22.5909L26.2317 22.6038L26.206 22.6167L26.1931 22.6295L26.1803 22.6424L26.1674 22.6552L26.1545 22.6681L26.1417 22.681L26.1288 22.6938L26.1159 22.7067L26.1031 22.7196L26.0902 22.7324L26.0773 22.7453L26.0645 22.7582L26.0516 22.771L26.0388 22.7839L26.0259 22.7968L26.013 22.8096L26.0002 22.8225L25.9873 22.8354L25.9744 22.8482L25.9616 22.8611L25.9487 22.874L25.9358 22.8868L25.923 22.8997L25.9101 22.9125L25.8972 22.9254L25.8844 22.9383L25.8715 22.9511L25.8586 22.964L25.8458 22.9769L25.8329 22.9897L25.82 23.0026L25.8072 23.0155L25.7943 23.0283L25.7815 23.0412L25.7686 23.0541L25.7557 23.0669L25.7429 23.0798L25.73 23.0927L25.7171 23.1055L25.7043 23.1184L25.6914 23.1313L25.6785 23.1441L25.6657 23.157L25.6528 23.1699V23.1827V23.1956V23.2084V23.2213V23.2342V23.247V23.2599V23.2728V23.2856V23.2985V23.3114V23.3242V23.3371V23.35V23.3628V23.3757V23.3886V23.4014V23.4143V23.4272V23.44V23.4529V23.4657V23.4786V23.4915V23.5043V23.5172V23.5301V23.5429V23.5558V23.5687V23.5815V23.5944V23.6073V23.6201V23.633V23.6459V23.6587V23.6716V23.6845V23.6973V23.7102V23.723V23.7359V23.7488V23.7616V23.7745V23.7874V23.8002V23.8131V23.826V23.8388V23.8517V23.8646V23.8774V23.8903V23.9032V23.916V23.9289V23.9418V23.9546V23.9675V23.9803V23.9932V24.0061V24.0189V24.0318V24.0447V24.0575V24.0704V24.0833V24.0961V24.109V24.1219V24.1347V24.1476V24.1605V24.1733V24.1862V24.1991V24.2119V24.2248V24.2376V24.2505V24.2634V24.2762L25.6657 24.2891L25.6785 24.302L25.6914 24.3148L25.7043 24.3277L25.7171 24.3406L25.73 24.3534L25.7429 24.3663L25.7557 24.3792L25.7686 24.392L25.7815 24.4049L25.7943 24.4178L25.8072 24.4306L25.82 24.4435L25.8329 24.4564L25.8458 24.4692L25.8586 24.4821L25.8715 24.4949L25.8844 24.5078L25.8972 24.5207L25.9101 24.5335L25.923 24.5464L25.9358 24.5593L25.9487 24.5721L25.9616 24.585L25.9744 24.5979L25.9873 24.6107L26.0002 24.6236L26.013 24.6365L26.0259 24.6493L26.0388 24.6622L26.0516 24.6751L26.0645 24.6879L26.0773 24.7008L26.0902 24.7137L26.1031 24.7265L26.1288 24.7523L26.1545 24.778L26.1803 24.8037L26.206 24.8294L26.2317 24.8552L26.2575 24.8809L26.2832 24.9066L26.3089 24.9324L26.3346 24.9581L26.3604 24.9838L26.3861 25.0096L26.4118 25.0353L26.4376 25.061L26.4633 25.0867L26.489 25.1125L26.5148 25.1382L26.5405 25.1639L26.5662 25.1897L26.5919 25.2154L26.6177 25.2411L26.6434 25.2669L26.6691 25.2926L26.6949 25.3183L26.7206 25.344L26.7463 25.3698L26.7721 25.3955L26.7978 25.4212L26.8235 25.447L26.8493 25.4727L43.2007 41.8242V61.7007H34.9156H34.8899H34.8642H34.8384H34.8127H34.787H34.7613H34.7355H34.7098H34.6841H34.6583H34.6326H34.6069H34.5811H34.5554H34.5297H34.504H34.4782H34.4525H34.4268H34.401H34.3753H34.3496H34.3238H34.2981H34.2724L34.2595 61.7135L34.2467 61.7264L34.2338 61.7393L34.2209 61.7521L34.2081 61.765L34.1952 61.7779L34.1823 61.7907L34.1695 61.8036L34.1566 61.8165L34.1437 61.8293L34.1309 61.8422L34.118 61.8551L34.1051 61.8679L34.0923 61.8808L34.0794 61.8937L34.0665 61.9065L34.0537 61.9194L34.0408 61.9322L34.0279 61.9451L34.0151 61.958L34.0022 61.9708L33.9894 61.9837L33.9765 61.9966L33.9636 62.0094L33.9508 62.0223L33.9379 62.0352L33.925 62.048L33.9122 62.0609L33.8993 62.0738L33.8864 62.0866L33.8736 62.0995L33.8607 62.1124L33.8478 62.1252L33.835 62.1381L33.8221 62.151L33.8092 62.1638L33.7964 62.1767L33.7835 62.1895L33.7706 62.2024L33.7578 62.2153L33.7449 62.2281L33.7321 62.241L33.7192 62.2539L33.7063 62.2667L33.6935 62.2796L33.6806 62.2925L33.6677 62.3053L33.6549 62.3182L33.642 62.3311L33.6291 62.3439L33.6163 62.3568L33.6034 62.3697L33.5905 62.3825L33.5777 62.3954L33.5648 62.4083L33.5519 62.4211L33.5391 62.434L33.5262 62.4468L33.5133 62.4597L33.5005 62.4726L33.4876 62.4854L33.4748 62.4983L33.4619 62.5112L33.449 62.524L33.4362 62.5369L33.4233 62.5498L33.4104 62.5626L33.3976 62.5755L33.3847 62.5884L33.3718 62.6012L33.359 62.6141L33.3461 62.627L33.3332 62.6398L33.3204 62.6527L33.3075 62.6656L33.2946 62.6784L33.2818 62.6913V62.717V62.7427V62.7685V62.7942V62.8199V62.8457V62.8714V62.8971V62.9229V62.9486V62.9743V63V63.0258V63.0515V63.0772V63.103V63.1287V63.1544V63.1802V63.2059V63.2316V63.2574V63.2831V63.3088V63.3345V63.3603V63.386V63.4117V63.4375V63.4632V63.4889V63.5147V63.5404V63.5661V63.5918V63.6176V63.6433V63.669V63.6948V63.7205V63.7462V63.772V63.7977V63.8234V63.8491V63.8749V63.9006V63.9263V63.9521V63.9778L33.2946 63.9907L33.3075 64.0035L33.3204 64.0164L33.3332 64.0293L33.3461 64.0421L33.359 64.055L33.3718 64.0678L33.3847 64.0807L33.3976 64.0936L33.4104 64.1064L33.4233 64.1193L33.4362 64.1322L33.449 64.145L33.4619 64.1579L33.4748 64.1708L33.4876 64.1836L33.5005 64.1965L33.5133 64.2094L33.5262 64.2222L33.5391 64.2351L33.5519 64.248L33.5648 64.2608L33.5777 64.2737L33.5905 64.2866L33.6034 64.2994L33.6163 64.3123L33.6291 64.3251L33.642 64.338L33.6549 64.3509L33.6677 64.3637L33.6806 64.3766L33.6935 64.3895L33.7063 64.4023L33.7192 64.4152L33.7321 64.4281L33.7449 64.4409L33.7578 64.4538L33.7706 64.4667L33.7835 64.4795L33.7964 64.4924L33.8092 64.5053L33.8221 64.5181L33.835 64.531L33.8478 64.5439L33.8607 64.5567L33.8736 64.5696L33.8864 64.5824L33.8993 64.5953L33.9122 64.6082L33.925 64.621L33.9379 64.6339L33.9508 64.6468L33.9636 64.6596L33.9765 64.6725L33.9894 64.6854L34.0022 64.6982L34.0151 64.7111L34.0279 64.724L34.0408 64.7368L34.0537 64.7497L34.0665 64.7626L34.0794 64.7754L34.0923 64.7883L34.1051 64.8012L34.118 64.814L34.1309 64.8269L34.1437 64.8397L34.1566 64.8526L34.1695 64.8655L34.1823 64.8783L34.1952 64.8912L34.2081 64.9041L34.2209 64.9169L34.2338 64.9298L34.2467 64.9427L34.2595 64.9555L34.2724 64.9684L34.2852 64.9813H34.311H34.3367H34.3624H34.3882H34.4139H34.4396H34.4654H34.4911H34.5168H34.5425H34.5683H34.594H34.6197H34.6455H34.6712H34.6969H34.7227H34.7484H34.7741H34.7999H34.8256H34.8513H34.877H34.9028L34.9156 65.0199ZM34.9028 67.5929H34.8513H34.7999H34.7484H34.6969H34.6455H34.594H34.5425H34.4911H34.4396L34.3882 67.58L34.3367 67.5671L34.2852 67.5543L34.2338 67.5414L34.1823 67.5285L34.1309 67.5157L34.0794 67.5028L34.0279 67.4899L33.9765 67.4771L33.925 67.4642L33.8736 67.4514L33.8221 67.4385L33.7706 67.4256L33.7063 67.4128L33.6549 67.3999L33.6034 67.387L33.5519 67.3742L33.5005 67.3613L33.449 67.3484L33.3976 67.3356L33.3461 67.3227L33.2946 67.297L33.2432 67.2712L33.1917 67.2455L33.1403 67.2198L33.0888 67.1941L33.0373 67.1683L32.9859 67.1426L32.9344 67.1169L32.8958 67.0911L32.8572 67.0654L32.8186 67.0397L32.78 67.0139L32.7414 66.9882L32.7028 66.9625L32.6643 66.9368L32.6257 66.911L32.5871 66.8853L32.5485 66.8596L32.5099 66.8338L32.4713 66.8081L32.4198 66.7695L32.3812 66.7438L32.3426 66.718L32.304 66.6923L32.2654 66.6666L32.2268 66.6409L32.1882 66.6023L32.1496 66.5637L32.1111 66.5251L32.0725 66.4865L32.0339 66.4479L31.9953 66.4093L31.9567 66.3707L31.9181 66.3321L31.8795 66.2935L31.8409 66.2549L31.8023 66.2163L31.7637 66.1777L31.7251 66.1391L31.6865 66.1005L31.6479 66.0619L31.6093 66.0233L31.5836 65.9847L31.5579 65.9461L31.5321 65.9075L31.5064 65.869L31.4807 65.8304L31.4549 65.7918L31.4292 65.7532L31.4035 65.7146L31.3777 65.676L31.352 65.6374L31.3263 65.5988L31.3006 65.5602L31.2748 65.5216L31.2491 65.483L31.2234 65.4444L31.1976 65.4058L31.1719 65.3544L31.1462 65.3029L31.1204 65.2514L31.0947 65.2L31.069 65.1485L31.0433 65.097L31.0175 65.0456L30.9918 64.9941L31.0047 64.9684L30.9789 64.9169L30.9661 64.8655L30.9532 64.814L30.9403 64.7626L30.9275 64.7111L30.9146 64.6596L30.9017 64.6082L30.8889 64.5567L30.876 64.5053L30.8631 64.4538L30.8503 64.4023L30.8374 64.3509L30.8246 64.2994L30.8117 64.248L30.7988 64.1965L30.786 64.145L30.7731 64.0936L30.7602 64.0421L30.7474 63.9907L30.7345 63.9392L30.7216 63.8877L30.7088 63.8363V63.7848V63.7333V63.6819V63.6304V63.579V63.5275V63.476V63.4246V63.3731V63.3217V63.2702V63.2188V63.1673V63.1158V63.0644V63.0129V62.9614V62.91L30.7216 62.8585L30.7345 62.8071L30.7474 62.7556L30.7602 62.7041L30.7731 62.6527L30.786 62.6012L30.7988 62.5498L30.8117 62.4983L30.8246 62.4468L30.8374 62.3954L30.8503 62.3439L30.8631 62.2925L30.876 62.241L30.8889 62.1895L30.9017 62.1381L30.9146 62.0866L30.9275 62.0352L30.9403 61.9837L30.9532 61.9322L30.9661 61.8808L30.9789 61.8293L31.0047 61.7779L31.0304 61.7264L31.0561 61.6749L31.0819 61.6235L31.1076 61.572L31.1333 61.5206L31.159 61.4691L31.1848 61.4176L31.2105 61.3662L31.2362 61.3147L31.262 61.2761L31.2877 61.2375L31.3134 61.1989L31.3392 61.1603L31.3649 61.1217L31.3906 61.0832L31.4163 61.0446L31.4421 61.006L31.4678 60.9674L31.4935 60.9288L31.5193 60.8902L31.545 60.8516L31.5707 60.813L31.5965 60.7744L31.6222 60.7358L31.6479 60.6972L31.6865 60.6586L31.7251 60.62L31.7637 60.5814L31.8023 60.5428L31.8409 60.5042L31.8795 60.4656L31.9181 60.427L31.9567 60.3884L31.9953 60.3498L32.0339 60.3112L32.0725 60.2727L32.1111 60.2341L32.1496 60.1955L32.1882 60.1569L32.2268 60.1183L32.2654 60.0925L32.304 60.0668L32.3426 60.0411L32.3812 60.0154L32.4198 59.9896L32.4584 59.9639L32.497 59.9382L32.5356 59.9124L32.5742 59.8867L32.6128 59.861L32.6514 59.8352L32.69 59.8095L32.7286 59.7838L32.7672 59.7581L32.8058 59.7323L32.8444 59.7066L32.883 59.6809L32.9216 59.6551L32.973 59.6294L33.0245 59.6037L33.0759 59.5779L33.1274 59.5522L33.1789 59.5265L33.2303 59.5008L33.2818 59.475L33.3332 59.4493L33.3847 59.4236L33.4362 59.4107L33.4876 59.3978L33.5391 59.385L33.5905 59.3721L33.642 59.3592L33.6935 59.3464L33.7449 59.3335L33.7964 59.3206L33.8478 59.3078L33.8993 59.2949L33.9508 59.282L34.0022 59.2692L34.0537 59.2563L34.1051 59.2435L34.1566 59.2306L34.2081 59.2177L34.2595 59.2049L34.311 59.192L34.3624 59.1791L34.4139 59.1663L34.4654 59.1534H34.5168H34.5683H34.6197H34.6712H34.7227H34.7741H34.8256H34.877H34.9285H40.6406V42.892L25.0095 27.2867L24.9838 27.2609L24.9452 27.2223L24.9066 27.1837L24.868 27.1452L24.8294 27.1066L24.7908 27.068L24.7522 27.0294L24.7137 26.9908L24.6751 26.9522L24.6365 26.9136L24.5979 26.875L24.5593 26.8364L24.5207 26.7978L24.4821 26.7592L24.4435 26.7206L24.4049 26.682L24.3663 26.6434L24.3277 26.6048L24.2891 26.5662L24.2505 26.5148L24.2119 26.4633L24.1733 26.4118L24.1347 26.3604L24.0961 26.3089L24.0575 26.2575L24.0189 26.206L23.9803 26.1545L23.9418 26.1031L23.9032 26.0516L23.8903 26.0259L23.8774 26.0002L23.8646 25.9744L23.8517 25.9487L23.8388 25.923L23.826 25.8972L23.8131 25.8715L23.8002 25.8458L23.7874 25.82L23.7745 25.7943L23.7616 25.7686L23.7488 25.7429L23.7359 25.7171L23.723 25.6914L23.7102 25.6657L23.6973 25.6399L23.6845 25.6142L23.6716 25.5885L23.6587 25.5627L23.6459 25.537L23.633 25.5113L23.6201 25.4727L23.6073 25.4341L23.5944 25.3955L23.5815 25.3569L23.5687 25.3183L23.5558 25.2797L23.5429 25.2411L23.5301 25.2025L23.5172 25.1639L23.5043 25.1253L23.4915 25.0867L23.4786 25.0481L23.4657 25.0096L23.4529 24.971L23.44 24.9324L23.4271 24.8938L23.4143 24.8552L23.4014 24.8166L23.3886 24.778L23.3757 24.7394L23.3628 24.7008L23.35 24.6622L23.3371 24.6236L23.3242 24.585L23.3114 24.5464L23.2985 24.5078L23.2856 24.4692L23.2728 24.4306L23.2599 24.392L23.247 24.3534L23.2342 24.3148L23.2213 24.2762L23.2084 24.2376L23.1956 24.1991L23.1827 24.1605L23.1698 24.1219L23.157 24.0704V24.0189V23.9675V23.916V23.8646V23.8131V23.7616V23.7102V23.6587V23.6073V23.5558V23.5043V23.4529V23.4143V23.3757V23.3371V23.2985V23.2599V23.2213V23.1827V23.1441V23.1055V23.0669V23.0283V22.9897V22.9511V22.9125V22.874L23.1698 22.8354L23.1827 22.7968L23.1956 22.7582L23.2084 22.7196L23.2213 22.681L23.2342 22.6424L23.247 22.6038L23.2599 22.5652L23.2728 22.5266L23.2856 22.488L23.2985 22.4494L23.3114 22.4108L23.3242 22.3722L23.3371 22.3336L23.35 22.295L23.3628 22.2564L23.3757 22.2178L23.3886 22.1792L23.4014 22.1406L23.4143 22.1021L23.4271 22.0635L23.44 22.0249L23.4529 21.9863L23.4657 21.9477L23.4786 21.9091L23.4915 21.8705L23.5043 21.8319L23.5172 21.7933L23.5301 21.7547L23.5429 21.7161L23.5687 21.6775L23.5944 21.6389L23.6201 21.6003L23.6459 21.5617L23.6716 21.5231L23.6973 21.4845L23.723 21.4459L23.7488 21.4073L23.7745 21.3687L23.8002 21.3301L23.826 21.2916L23.8517 21.253L23.8774 21.2272L23.9032 21.2015L23.9289 21.1758L23.9546 21.15L23.9803 21.1243L24.0061 21.0986L24.0318 21.0728L24.0575 21.0471L24.0833 21.0214L24.109 20.9957L24.1347 20.9699L24.1605 20.9442L24.1862 20.9185L24.2119 20.8927L24.2376 20.867L24.2634 20.8413L24.2891 20.8155L24.3148 20.7898L24.3406 20.7641L24.3663 20.7384L24.392 20.7126L24.4178 20.6869L24.4435 20.6612L24.4692 20.6354L24.4949 20.6097L24.5207 20.584L24.5464 20.5582L24.5721 20.5325L24.5979 20.5068L24.6236 20.4811L24.6493 20.4553L24.6751 20.4296L24.7008 20.4039L24.7265 20.3781L24.7522 20.3524L24.778 20.3267L24.8037 20.3009L24.8552 20.2623L24.9066 20.2238L24.9581 20.1852L25.0095 20.1466L25.061 20.1208L25.1125 20.0951L25.1639 20.0694L25.2154 20.0436L25.2668 20.0179L25.3183 19.9922L25.3698 19.9665L25.4212 19.9407L25.4727 19.915L25.5242 19.8893L25.5756 19.8635L25.6271 19.8378L25.6785 19.8121L25.73 19.7863L25.7815 19.7606L25.8329 19.7477L25.8844 19.7349L25.9358 19.722L25.9873 19.7092L26.0388 19.6963L26.0902 19.6834L26.1417 19.6706L26.1931 19.6577L26.2446 19.6448L26.2961 19.632L26.3475 19.6191L26.399 19.6062L26.4504 19.5934L26.5019 19.5805L26.5534 19.5676L26.5919 19.5548L26.6305 19.5419L26.6691 19.529L26.7077 19.5162L26.7463 19.5033L26.7849 19.4904L26.8235 19.4776L26.8621 19.4647L26.9007 19.4519L26.9393 19.439L26.9779 19.4261L27.0165 19.4133L27.0551 19.4004H27.0937H27.1323H27.1709H27.2095H27.2481H27.2867H27.3253H27.3639H27.4024H27.441H27.4796H27.5182H27.5568H27.5954H27.634H27.6726H27.7112H27.7498H27.7884H27.827H27.8656H27.9042H27.9428H27.9814H28.02H28.0586H28.0972H28.1358H28.2001H28.2644H28.3287H64.7754H64.8397H64.9041H64.9684H65.007H65.0456H65.0842H65.1228H65.1614H65.2H65.2386H65.2771H65.3157H65.3543H65.3929H65.4315H65.4701H65.5087H65.5473H65.5859H65.6245H65.6631H65.7017H65.7403H65.7789H65.8175H65.8561H65.8947H65.9333H65.9719H66.0105H66.0491L66.0876 19.4133L66.1262 19.4261L66.1648 19.439L66.2034 19.4519L66.242 19.4647L66.2806 19.4776L66.3192 19.4904L66.3578 19.5033L66.3964 19.5162L66.435 19.529L66.4736 19.5419L66.5122 19.5548L66.5508 19.5676L66.6022 19.5805L66.6537 19.5934L66.7052 19.6062L66.7566 19.6191L66.8081 19.632L66.8596 19.6448L66.911 19.6577L66.9625 19.6706L67.0139 19.6834L67.0654 19.6963L67.1169 19.7092L67.1683 19.722L67.2198 19.7349L67.2712 19.7477L67.3227 19.7606L67.3741 19.7863L67.4256 19.8121L67.4771 19.8378L67.5285 19.8635L67.58 19.8893L67.6315 19.915L67.6829 19.9407L67.7344 19.9665L67.7858 19.9922L67.8373 20.0179L67.8888 20.0436L67.9402 20.0694L67.9917 20.0951L68.0431 20.1208L68.0946 20.1466L68.1461 20.1852L68.1975 20.2238L68.249 20.2623L68.3004 20.3009L68.3262 20.3267L68.3519 20.3395L68.3776 20.3653L68.4034 20.391L68.4291 20.4167L68.4548 20.4425L68.4805 20.4682L68.5063 20.4939L68.532 20.5196L68.5577 20.5454L68.5835 20.5711L68.6092 20.5968L68.6349 20.6226L68.6607 20.6483L68.6864 20.674L68.7121 20.6998L68.7378 20.7255L68.7636 20.7512L68.7893 20.777L68.815 20.8027L68.8408 20.8284L68.8665 20.8541L68.8922 20.8799L68.918 20.9056L68.9437 20.9313L68.9694 20.9571L68.9951 20.9828L69.0209 21.0085L69.0466 21.0343L69.0723 21.06L69.0981 21.0857L69.1238 21.1114L69.1495 21.1372L69.1753 21.1629L69.201 21.1886L69.2267 21.2144L69.2524 21.2401L69.2782 21.2787L69.3039 21.3173L69.3296 21.3559L69.3554 21.3945L69.3811 21.4331L69.4068 21.4717L69.4326 21.5103L69.4583 21.5489L69.484 21.5874L69.5097 21.626L69.5355 21.6646L69.5612 21.7032L69.5741 21.7418L69.5869 21.7804L69.5998 21.819L69.6127 21.8576L69.6255 21.8962L69.6384 21.9348L69.6513 21.9734L69.6641 22.012L69.677 22.0506L69.6899 22.0892L69.7027 22.1278L69.7156 22.1664L69.7285 22.205L69.7413 22.2436L69.7542 22.2822L69.767 22.3208L69.7799 22.3594L69.7928 22.3979L69.8056 22.4365L69.8185 22.4751L69.8314 22.5137L69.8442 22.5523L69.8571 22.5909L69.87 22.6295L69.8828 22.6681L69.8957 22.7067L69.9086 22.7453L69.9214 22.7839L69.9343 22.8225L69.9472 22.8611V22.8997V22.9383V22.9769V23.0155V23.0541V23.0927V23.1313V23.1699V23.2084V23.247V23.2856V23.3242V23.3628V23.4014V23.44V23.4915V23.5429V23.5944V23.6459V23.6973V23.7488V23.8002V23.8517V23.9032V23.9546V24.0061V24.0575L69.9343 24.109L69.9214 24.1476L69.9086 24.1862L69.8957 24.2248L69.8828 24.2634L69.87 24.302L69.8571 24.3406L69.8442 24.3792L69.8314 24.4178L69.8185 24.4564L69.8056 24.4949L69.7928 24.5335L69.7799 24.5721L69.767 24.6107L69.7542 24.6493L69.7413 24.6879L69.7285 24.7265L69.7156 24.7651L69.7027 24.8037L69.6899 24.8423L69.677 24.8809L69.6641 24.9195L69.6513 24.9581L69.6384 24.9967L69.6255 25.0353L69.6127 25.0739L69.5998 25.1125L69.5869 25.1511L69.5741 25.1897L69.5612 25.2283L69.5483 25.2669L69.5355 25.3054L69.5226 25.344L69.5097 25.3826L69.4969 25.4212L69.484 25.4598L69.4712 25.4984L69.4583 25.5242L69.4454 25.5499L69.4326 25.5756L69.4197 25.6013L69.4068 25.6271L69.394 25.6528L69.3811 25.6785L69.3682 25.7043L69.3554 25.73L69.3425 25.7557L69.3296 25.7815L69.3168 25.8072L69.3039 25.8329L69.291 25.8586L69.2782 25.8844L69.2653 25.9101L69.2524 25.9358L69.2396 25.9616L69.2267 25.9873L69.2139 26.013L69.1881 26.0388L69.1495 26.0902L69.1109 26.1417L69.0723 26.1931L69.0337 26.2446L68.9951 26.2961L68.9566 26.3475L68.918 26.399L68.8794 26.4504L68.8408 26.5019L68.8022 26.5534L68.7636 26.592L68.725 26.6305L68.6864 26.6691L68.6478 26.7077L68.6092 26.7463L68.5706 26.7849L68.532 26.8235L68.4934 26.8621L68.4548 26.9007L68.4162 26.9393L68.3776 26.9779L68.339 27.0165L68.3004 27.0551L68.2618 27.0937L68.2232 27.1323L68.1846 27.1709L68.1461 27.2095L68.1075 27.2481L68.0817 27.2738L52.3992 42.892V59.1277H58.1113H58.1628H58.2142H58.2657H58.3172H58.3686H58.4201H58.4715H58.523H58.5745L58.6259 59.1405L58.6774 59.1534L58.7288 59.1663L58.7803 59.1791L58.8318 59.192L58.8832 59.2049L58.9347 59.2177L58.9861 59.2306L59.0376 59.2435L59.0891 59.2563L59.1405 59.2692L59.192 59.282L59.2434 59.2949L59.2949 59.3078L59.3464 59.3206L59.3978 59.3335L59.4493 59.3464L59.5007 59.3592L59.5522 59.3721L59.6037 59.385L59.6551 59.3978L59.7066 59.4236L59.758 59.4493L59.8095 59.475L59.861 59.5008L59.9124 59.5265L59.9639 59.5522L60.0153 59.5779L60.0668 59.6037L60.1183 59.6294L60.1569 59.6551L60.1955 59.6809L60.2341 59.7066L60.2726 59.7323L60.3112 59.7581L60.3498 59.7838L60.3884 59.8095L60.427 59.8352L60.4656 59.861L60.5042 59.8867L60.5428 59.9124L60.5814 59.9382L60.62 59.9639L60.6586 59.9896L60.6972 60.0154L60.7358 60.0411L60.7744 60.0668L60.813 60.1054L60.8516 60.144L60.8902 60.1826L60.9288 60.2212L60.9674 60.2598L61.006 60.2984L61.0445 60.337L61.0831 60.3756L61.1217 60.4142L61.1603 60.4528L61.1989 60.4914L61.2375 60.53L61.2761 60.5686L61.3147 60.6071L61.3533 60.6457L61.3919 60.6843L61.4176 60.7229L61.4434 60.7615L61.4691 60.8001L61.4948 60.8387L61.5206 60.8773L61.5463 60.9159L61.572 60.9545L61.5977 60.9931L61.6235 61.0317L61.6492 61.0703L61.6749 61.1089L61.7007 61.1475L61.7264 61.1861L61.7521 61.2247L61.7779 61.2633L61.8036 61.3019L61.8293 61.3405L61.855 61.3919L61.8808 61.4434L61.9065 61.4948L61.9322 61.5463L61.958 61.5978L61.9837 61.6492L62.0094 61.7007L62.0352 61.7521L62.0609 61.8036L62.0737 61.8551L62.0866 61.9065L62.0995 61.958L62.1123 62.0094L62.1252 62.0609L62.1381 62.1124L62.1509 62.1638L62.1638 62.2153L62.1767 62.2667L62.1895 62.3182L62.2024 62.3697L62.2153 62.4211L62.2281 62.4726L62.241 62.524L62.2539 62.5755L62.2667 62.627L62.2796 62.6784L62.2925 62.7299L62.3053 62.7813L62.3182 62.8328L62.3311 62.8843V62.9357V62.9872V63.0386V63.0901V63.1416V63.193V63.2445V63.2959V63.3474V63.3989V63.4503V63.5018V63.5532V63.6047V63.6562V63.7076V63.7591V63.8105L62.3182 63.862L62.3053 63.9135L62.2925 63.9649L62.2796 64.0164L62.2667 64.0678L62.2539 64.1193L62.241 64.1708L62.2281 64.2222L62.2153 64.2737L62.2024 64.3251L62.1895 64.3766L62.1767 64.4281L62.1638 64.4795L62.1509 64.531L62.1381 64.5824L62.1252 64.6339L62.1123 64.6854L62.0995 64.7368L62.0866 64.7883L62.0737 64.8397L62.0609 64.8912L62.0094 64.9684L61.9837 65.0199L61.958 65.0713L61.9322 65.1228L61.9065 65.1742L61.8808 65.2257L61.855 65.2772L61.8293 65.3286L61.8036 65.3801L61.7779 65.4187L61.7521 65.4573L61.7264 65.4959L61.7007 65.5345L61.6749 65.5731L61.6492 65.6117L61.6235 65.6502L61.5977 65.6888L61.572 65.7274L61.5463 65.766L61.5206 65.8046L61.4948 65.8432L61.4691 65.8818L61.4434 65.9204L61.4176 65.959L61.3919 65.9976L61.3662 66.0362L61.3404 66.0748L61.3018 66.1134L61.2633 66.152L61.2247 66.1906L61.1861 66.2292L61.1475 66.2678L61.1089 66.3064L61.0703 66.345L61.0317 66.3836L60.9931 66.4221L60.9545 66.4607L60.9159 66.4993L60.8773 66.5379L60.8387 66.5765L60.8001 66.6151L60.7615 66.6537L60.7229 66.6795L60.6843 66.7052L60.6457 66.7309L60.6071 66.7566L60.5943 66.7695L60.5557 66.7952L60.5171 66.821L60.4785 66.8467L60.4399 66.8724L60.4013 66.8982L60.3627 66.9239L60.3241 66.9496L60.2855 66.9753L60.2469 67.0011L60.2083 67.0268L60.1697 67.0525L60.1311 67.0783L60.0925 67.104L60.0411 67.1297L59.9896 67.1555L59.9382 67.1812L59.8867 67.2069L59.8352 67.2326L59.7838 67.2584L59.7323 67.2841L59.6809 67.3098L59.6294 67.3227L59.5779 67.3356L59.5265 67.3484L59.475 67.3613L59.4235 67.3742L59.3721 67.387L59.3206 67.3999L59.2692 67.4128L59.2177 67.4256L59.1662 67.4385L59.1148 67.4514L59.0633 67.4642L59.0119 67.4771L58.9604 67.4899L58.9089 67.5028L58.8575 67.5157L58.806 67.5285L58.7546 67.5414L58.7031 67.5543L58.6516 67.5671L58.6002 67.58H58.5487H58.4973H58.4458H58.3943H58.3429H58.2914H58.24H58.1885H58.137H34.9028V67.5929Z"
                  fill="#66CCFF"/>
        </g>
    </g>
    <defs>
        <clipPath id="clip0_2432_296">
            <rect width="100" height="69.7157" fill="white"/>
        </clipPath>
    </defs>
</svg>
