<svg width="100" height="70" viewBox="0 0 100 70" fill="none" xmlns="http://www.w3.org/2000/svg">
    <g id="Frame" clip-path="url(#clip0_2432_231)">
        <path id="Vector" fill-rule="evenodd" clip-rule="evenodd"
              d="M25.5628 69.7157C25.1511 69.69 24.7523 69.69 24.3406 69.6514C23.5301 69.5742 22.7197 69.4198 21.9349 69.1882C20.7642 68.8409 19.632 68.3263 18.6028 67.6701C17.5736 67.014 16.6345 66.2035 15.8369 65.2772C15.1293 64.4539 15.0006 64.1966 14.4217 63.2832L1.7239 41.2839C1.22216 40.3191 1.06778 40.0875 0.707559 39.0583C0.308743 37.9004 0.0771719 36.6911 0.0128466 35.4689C-0.0514786 34.2468 0.0771719 33.0117 0.360203 31.8281C0.553179 31.0305 0.823344 30.2586 1.15784 29.5124C1.32508 29.1393 1.53092 28.792 1.7239 28.4189L14.4217 6.43252C15.0135 5.5191 15.1293 5.2618 15.8369 4.43844C16.6345 3.51216 17.5736 2.70166 18.6028 2.04554C19.632 1.38942 20.7642 0.874823 21.9349 0.527467C22.7197 0.295896 23.5173 0.141516 24.3406 0.0643252C24.7523 0.0257301 25.1511 0.0257301 25.5628 0H74.4371C75.5178 0.0514602 75.8008 0.0257301 76.8686 0.231571C78.0779 0.463142 79.2358 0.861958 80.3293 1.42802C81.4229 1.99408 82.4263 2.70166 83.314 3.55075C83.9058 4.11681 84.4461 4.73434 84.9093 5.40332C85.1409 5.73781 85.3467 6.08517 85.5654 6.43252L98.2632 28.4189C98.4562 28.7791 98.6492 29.1393 98.8293 29.5124C99.1638 30.2586 99.4339 31.0305 99.6269 31.8281C99.9099 33.0246 100.039 34.2468 99.9743 35.4689C99.9099 36.6911 99.6784 37.9133 99.2795 39.0583C98.9193 40.0875 98.7649 40.3191 98.2632 41.2839L85.5654 63.2703C84.9736 64.1837 84.8578 64.441 84.1502 65.2644C83.3526 66.1907 82.4135 67.0012 81.3843 67.6573C80.3551 68.3134 79.2229 68.828 78.0522 69.1754C77.2674 69.4069 76.4698 69.5613 75.6465 69.6385C75.2348 69.6771 74.836 69.6771 74.4243 69.7028C58.15 69.7157 41.85 69.7157 25.5628 69.7157Z"
              fill="#FFCC22"/>
        <path id="Vector_2"
              d="M49.9808 6.71558C35.0831 6.71558 29.9628 19.5163 29.9628 19.5163C27.3512 28.1101 26.6951 37.3086 27.2225 39.1483C27.75 41.0009 29.0751 46.713 28.8049 48.3211C28.5219 49.9292 30.7733 53.8145 31.6996 54.6636C32.6387 55.5127 36.7684 56.9021 38.4923 56.7734C40.2162 56.6319 41.5799 61.5464 41.8758 61.6622C42.1846 61.778 43.0079 61.5978 43.0079 61.0704C43.0079 60.53 43.1623 60.0926 43.3553 60.0926C43.5483 60.0926 43.7027 60.5686 43.7027 61.1604C43.7027 61.7522 44.1401 62.3311 44.6675 62.4469C45.195 62.5627 46.6616 62.1768 46.6616 61.4435C46.6616 60.7102 46.816 60.0926 47.009 60.0926C47.2019 60.0926 47.3563 60.7102 47.3563 61.4692C47.3563 62.2282 48.2183 62.9101 49.2861 62.9873H50.2896H50.3024C50.3153 62.9873 50.3153 62.3311 50.3153 61.5335C50.3153 60.7359 50.4697 60.0798 50.6626 60.0798C50.8556 60.0798 51.01 60.723 51.01 61.5207C51.01 62.3183 51.4603 62.9487 52.0006 62.9229C52.5409 62.8972 53.9304 62.1639 53.9304 61.4177C53.9304 60.6844 54.0847 60.0669 54.2777 60.0669C54.4707 60.0669 54.6251 60.6458 54.6251 61.3663C54.6251 62.0738 55.0496 62.5885 55.59 62.4855C56.1174 62.3955 57.4425 61.6107 57.4425 61.0575C57.4425 60.5043 57.5969 60.0669 57.7899 60.0669C57.9829 60.0669 58.1372 60.4657 58.1372 60.9546C58.1372 61.4435 58.3173 61.778 58.536 61.7008C58.7548 61.6236 60.5301 60.2599 62.0353 58.8447C63.5277 57.4296 66.6796 55.8214 67.9404 55.0495C69.214 54.2648 71.9414 51.0614 72.6361 49.4018C73.3437 47.7422 71.787 44.4359 71.7484 44.4101C71.7099 44.3844 71.9286 43.2266 72.3274 41.9272C72.7262 40.6278 72.9706 28.1101 70.4491 19.5034C70.4748 19.5163 64.8785 6.71558 49.9808 6.71558ZM46.9318 40.0103C45.864 41.9272 42.7764 44.333 41.3098 45.8253C39.8431 47.3176 34.7486 44.809 33.7708 42.1459C32.1112 37.6689 37 32.1112 40.1776 31.5708C43.3682 31.0305 47.9996 38.0934 46.9318 40.0103ZM52.3094 48.3597C52.9012 50.7912 52.8626 52.721 52.245 52.6438C51.6275 52.5666 49.6077 52.2964 48.8229 52.811C48.051 53.3256 47.575 50.8041 48.1668 48.3726C48.7586 45.9411 49.5948 43.2523 49.6592 43.1622C49.7235 43.0722 49.9551 42.8406 50.0065 42.7892C50.058 42.7377 50.2252 42.712 50.2252 42.712H50.251C50.251 42.712 50.3153 42.7248 50.3796 42.7248C50.4439 42.7377 50.624 42.9307 50.7012 42.995C50.7784 43.0722 51.7176 45.9154 52.3094 48.3597ZM66.9369 41.4383C65.8691 44.0628 64.1066 46.1469 62.3698 45.8382C60.6459 45.5423 55.5771 42.1073 54.3806 40.2676C53.1842 38.4279 56.4905 32.1626 59.4881 31.1849C62.5113 30.22 68.7895 36.9227 66.9369 41.4383Z"
              fill="#555555"/>
    </g>
    <defs>
        <clipPath id="clip0_2432_231">
            <rect width="100" height="69.7157" fill="white"/>
        </clipPath>
    </defs>
</svg>
