<svg width="100" height="70" viewBox="0 0 100 70" fill="none" xmlns="http://www.w3.org/2000/svg">
    <g id="Frame" clip-path="url(#clip0_2432_218)">
        <path id="Vector" fill-rule="evenodd" clip-rule="evenodd"
              d="M87.1349 34.8514L74.4371 56.8506H25.5628L12.865 34.8514L25.5628 12.865H74.4371L87.1349 34.8514Z"
              fill="#66CCFF"/>
        <path id="Vector_2" fill-rule="evenodd" clip-rule="evenodd"
              d="M25.5628 69.7157C25.1511 69.69 24.7523 69.69 24.3406 69.6514C23.5301 69.5742 22.7197 69.4198 21.9349 69.1882C20.7642 68.8409 19.632 68.3263 18.6028 67.6701C17.5736 67.014 16.6345 66.2035 15.8369 65.2772C15.1293 64.4539 15.0006 64.1966 14.4217 63.2832L1.7239 41.2839C1.22216 40.3191 1.06778 40.0875 0.707559 39.0583C0.308743 37.9004 0.0771719 36.6911 0.0128466 35.4689C-0.0514786 34.2468 0.0771719 33.0117 0.360203 31.8281C0.553179 31.0305 0.823344 30.2586 1.15784 29.5124C1.32508 29.1393 1.53092 28.792 1.7239 28.4189L14.4217 6.43252C15.0135 5.5191 15.1293 5.2618 15.8369 4.43844C16.6345 3.51216 17.5736 2.70166 18.6028 2.04554C19.632 1.38942 20.7642 0.874823 21.9349 0.527467C22.7197 0.295896 23.5173 0.141516 24.3406 0.0643252C24.7523 0.0257301 25.1511 0.0257301 25.5628 0H74.4371C75.5178 0.0514602 75.8008 0.0257301 76.8686 0.231571C78.0779 0.463142 79.2358 0.861958 80.3293 1.42802C81.4229 1.99408 82.4263 2.70166 83.314 3.55075C83.9058 4.11681 84.4461 4.73434 84.9093 5.40332C85.1409 5.73781 85.3467 6.08517 85.5654 6.43252L98.2632 28.4189C98.4562 28.7791 98.6492 29.1393 98.8293 29.5124C99.1638 30.2586 99.4339 31.0305 99.6269 31.8281C99.9099 33.0246 100.039 34.2468 99.9743 35.4689C99.9099 36.6911 99.6784 37.9133 99.2795 39.0583C98.9193 40.0875 98.7649 40.3191 98.2632 41.2839L85.5654 63.2703C84.9736 64.1837 84.8578 64.441 84.1502 65.2644C83.3526 66.1907 82.4135 67.0012 81.3843 67.6573C80.3551 68.3134 79.2229 68.828 78.0522 69.1754C77.2674 69.4069 76.4698 69.5613 75.6465 69.6385C75.2348 69.6771 74.836 69.6771 74.4243 69.7028C58.15 69.7157 41.85 69.7157 25.5628 69.7157Z"
              fill="#66CCFF"/>
        <path id="Vector_3"
              d="M79.686 27.2483C78.9141 24.2121 77.679 21.3561 76.0709 18.7573C73.4722 14.5633 69.8957 11.0383 65.6631 8.50391C67.1168 10.8325 68.0817 13.5084 68.3776 16.3773C68.4419 17.0077 68.4805 17.6638 68.4805 18.3071C68.4805 18.886 68.4548 19.4521 68.4033 20.0181C67.7987 26.5664 63.7719 32.1499 58.1242 34.9287C56.2716 35.8421 54.2518 36.4468 52.1162 36.7041C52.1162 36.7427 52.1291 36.7941 52.1291 36.8327C53.0168 43.3939 58.1756 48.6043 64.7111 49.5691C65.4187 49.6721 66.1391 49.7235 66.8853 49.7235C67.387 49.7235 67.8887 49.6978 68.3905 49.6463C73.2149 49.1574 77.3574 46.3657 79.7117 42.3776C80.3164 39.9718 80.638 37.4503 80.638 34.8515C80.6251 32.227 80.3035 29.6798 79.686 27.2483Z"
              fill="#555555"/>
        <path id="Vector_4"
              d="M33.4234 16.3C34.0152 16.3 34.607 16.3257 35.1859 16.39C41.7985 17.0204 47.4077 21.1372 50.1479 26.875C51.0613 28.779 51.6531 30.876 51.859 33.0631C51.9362 33.0502 52.0134 33.0502 52.0905 33.0374C58.7032 32.0854 63.9135 26.7592 64.724 20.0951C64.8012 19.5033 64.8398 18.9116 64.8398 18.294C64.8398 17.6636 64.8012 17.0333 64.724 16.4286C64.0808 11.2826 60.8002 6.94706 56.2845 4.82433C54.239 4.39978 52.1291 4.16821 49.9549 4.16821C47.7808 4.16821 45.6709 4.39978 43.6253 4.82433C40.2547 5.53191 37.1028 6.77982 34.2339 8.49087C29.8598 11.1025 26.2061 14.769 23.5945 19.1303C25.9359 17.6636 28.6247 16.6988 31.5193 16.4029C32.1497 16.3385 32.7801 16.3 33.4234 16.3Z"
              fill="#555555"/>
        <path id="Vector_5"
              d="M31.4164 51.563C31.4164 50.9069 31.455 50.2508 31.5193 49.6075C32.2012 43.1622 36.2022 37.6816 41.7857 34.9414C43.754 33.9765 45.9153 33.3461 48.2053 33.1274C48.2439 33.1274 48.2825 33.1146 48.334 33.1146C48.2954 33.1146 48.2439 33.1017 48.2053 33.1017C47.4077 26.2832 41.9786 20.867 35.1602 20.0565C34.5812 19.9922 34.0023 19.9536 33.4105 19.9536C32.7673 19.9536 32.124 20.0051 31.4936 20.0823C26.3347 20.7512 21.9992 24.0576 19.8893 28.6118C19.4648 30.6316 19.2461 32.7286 19.2461 34.8771C19.2461 36.9869 19.4648 39.0582 19.8636 41.0523C20.5583 44.4487 21.8191 47.6392 23.5302 50.521C26.116 54.8693 29.744 58.5359 34.0795 61.1475C32.6643 58.806 31.7509 56.1301 31.4936 53.2741C31.455 52.6952 31.4164 52.1291 31.4164 51.563Z"
              fill="#555555"/>
        <path id="Vector_6"
              d="M66.8726 53.3514C66.1521 53.3514 65.4445 53.3128 64.737 53.2227C58.2916 52.4766 52.8368 48.4112 50.1351 42.7763C49.2474 40.9109 48.6557 38.8911 48.4369 36.7555C48.4369 36.7426 48.4369 36.7426 48.4369 36.7297C48.3984 36.7297 48.3598 36.7426 48.3212 36.7426C48.2697 36.7426 48.2182 36.7297 48.1668 36.7297C48.1668 36.7426 48.1668 36.7555 48.1668 36.7683C41.4255 37.566 36.0608 42.8921 35.1731 49.6076C35.0959 50.2509 35.0444 50.8942 35.0444 51.5503C35.0444 52.1292 35.083 52.7081 35.1474 53.2613C35.7263 58.2658 38.801 62.5242 43.0851 64.7627C45.285 65.2644 47.5879 65.5346 49.9422 65.5346C52.2965 65.5346 54.5993 65.2644 56.7992 64.7627C60.0284 64.0294 63.0516 62.7815 65.8048 61.1219C70.0116 58.5746 73.5495 55.0624 76.1225 50.8684C73.8197 52.2064 71.1952 53.0555 68.4035 53.2871C67.8889 53.3385 67.3872 53.3514 66.8726 53.3514Z"
              fill="#555555"/>
    </g>
    <defs>
        <clipPath id="clip0_2432_218">
            <rect width="100" height="69.7157" fill="white"/>
        </clipPath>
    </defs>
</svg>
