<svg width="100" height="70" viewBox="0 0 100 70" fill="none" xmlns="http://www.w3.org/2000/svg">
    <g id="Frame" clip-path="url(#clip0_2432_282)">
        <path id="Vector" fill-rule="evenodd" clip-rule="evenodd"
              d="M87.1349 34.8514L74.4371 56.8506H25.5628L12.865 34.8514L25.5628 12.865H74.4371L87.1349 34.8514Z"
              fill="#66CCFF"/>
        <path id="Vector_2" fill-rule="evenodd" clip-rule="evenodd"
              d="M25.5628 69.7157C25.1511 69.69 24.7523 69.69 24.3406 69.6514C23.5301 69.5742 22.7197 69.4198 21.9349 69.1882C20.7642 68.8409 19.632 68.3263 18.6028 67.6701C17.5736 67.014 16.6345 66.2035 15.8369 65.2772C15.1293 64.4539 15.0006 64.1966 14.4217 63.2832L1.7239 41.2839C1.22216 40.3191 1.06778 40.0875 0.707559 39.0583C0.308743 37.9004 0.0771719 36.6911 0.0128466 35.4689C-0.0514786 34.2468 0.0771719 33.0117 0.360203 31.8281C0.553179 31.0305 0.823344 30.2586 1.15784 29.5124C1.32508 29.1393 1.53092 28.792 1.7239 28.4189L14.4217 6.43252C15.0135 5.5191 15.1293 5.2618 15.8369 4.43844C16.6345 3.51216 17.5736 2.70166 18.6028 2.04554C19.632 1.38942 20.7642 0.874823 21.9349 0.527467C22.7197 0.295896 23.5173 0.141516 24.3406 0.0643252C24.7523 0.0257301 25.1511 0.0257301 25.5628 0H74.4371C75.5178 0.0514602 75.8008 0.0257301 76.8686 0.231571C78.0779 0.463142 79.2358 0.861958 80.3293 1.42802C81.4229 1.99408 82.4263 2.70166 83.314 3.55075C83.9058 4.11681 84.4461 4.73434 84.9093 5.40332C85.1409 5.73781 85.3467 6.08517 85.5654 6.43252L98.2632 28.4189C98.4562 28.7791 98.6492 29.1393 98.8293 29.5124C99.1638 30.2586 99.4339 31.0305 99.6269 31.8281C99.9099 33.0246 100.039 34.2468 99.9743 35.4689C99.9099 36.6911 99.6784 37.9133 99.2795 39.0583C98.9193 40.0875 98.7649 40.3191 98.2632 41.2839L85.5654 63.2703C84.9736 64.1837 84.8578 64.441 84.1502 65.2644C83.3526 66.1907 82.4135 67.0012 81.3843 67.6573C80.3551 68.3134 79.2229 68.828 78.0522 69.1754C77.2674 69.4069 76.4698 69.5613 75.6465 69.6385C75.2348 69.6771 74.836 69.6771 74.4243 69.7028C58.15 69.7157 41.85 69.7157 25.5628 69.7157Z"
              fill="#66CCFF"/>
        <g id="Group">
            <path id="Vector_3"
                  d="M58.6775 36.0479C57.9828 35.5848 57.2238 35.2503 56.4133 35.0444C55.6156 34.8515 54.8309 34.7871 54.059 34.8643C53.7245 34.6842 53.3514 34.5298 52.9783 34.4269V32.3428C52.9783 30.5417 52.3222 28.9593 51.0228 27.6728C49.7234 26.3734 48.1539 25.7173 46.3528 25.7173C44.5517 25.7173 42.9693 26.3734 41.6828 27.6728C40.3834 28.9721 39.7273 30.5417 39.7273 32.3428V37.8104C39.3928 37.7718 39.0583 37.759 38.711 37.759C36.8069 37.759 35.1988 38.428 33.9509 39.7659C32.7158 41.091 32.0854 42.8664 32.0854 45.0406C32.0854 46.3786 32.6001 47.5107 33.5907 48.3984C34.1696 48.9258 35.1345 49.5176 36.5368 50.2252C37.2315 50.5983 37.7589 50.8813 38.0806 51.0743C38.7238 51.486 39.4829 52.0906 40.3577 52.8754C40.9623 53.4286 41.3869 53.866 41.6313 54.149C41.8372 54.3935 41.8629 54.5221 41.8758 54.5479C41.4898 55.0625 41.2968 55.6671 41.2968 56.3618V60.9804C41.2968 61.7652 41.5541 62.4599 42.0687 63.0388C42.6091 63.6306 43.2652 63.9393 44.0242 63.9393H60.6201C61.3792 63.9393 62.0482 63.6306 62.5756 63.0388C63.0902 62.4599 63.3475 61.778 63.3475 60.9804V56.3618C63.3475 55.6671 63.1545 55.0625 62.7686 54.5479C62.7686 54.252 62.8458 53.8789 63.0002 53.4415L63.7721 51.8848C64.3639 50.7012 64.7755 49.7749 65.0328 49.0673L65.0457 49.0416C65.4445 47.7808 65.6504 46.5458 65.6504 45.3879V43.8699C65.6504 41.4898 64.9685 39.5858 63.6306 38.1964C62.3441 36.8713 60.6716 36.138 58.6775 36.0479ZM59.1921 58.6775C59.1921 58.9863 59.0892 59.2307 58.8705 59.4494C58.6518 59.6682 58.4073 59.7711 58.0986 59.7711C57.7898 59.7711 57.5454 59.6682 57.3267 59.4494C57.108 59.2307 57.0051 58.9863 57.0051 58.6775C57.0051 58.3688 57.108 58.1243 57.3267 57.9056C57.5454 57.6869 57.7898 57.584 58.0986 57.584C58.4073 57.584 58.6518 57.6869 58.8705 57.9056C59.0892 58.1243 59.1921 58.3688 59.1921 58.6775ZM44.4616 44.4617V32.3428C44.4616 31.841 44.6417 31.4165 45.0277 31.0306C45.4136 30.6446 45.8382 30.4645 46.3399 30.4645C46.8417 30.4645 47.2662 30.6446 47.6522 31.0306C48.0381 31.4165 48.2182 31.841 48.2182 32.3428V40.2805L49.2732 39.4057C49.7363 39.0197 50.3024 38.8525 51.0099 38.8654C51.7047 38.8782 52.2836 39.1613 52.7982 39.7016L53.1455 40.0747L53.583 39.8174C54.1104 39.5215 54.6636 39.4572 55.294 39.6244C55.9244 39.7916 56.3489 40.0875 56.6062 40.5121L56.8249 40.898L57.2624 40.8209C58.4588 40.615 59.3722 40.7694 59.9897 41.2583C60.5944 41.7471 60.9032 42.622 60.9032 43.857V45.4137C60.9032 46.1084 60.7745 46.8546 60.5043 47.6393C60.3114 48.1025 59.9897 48.8358 59.5266 49.8135C59.0892 50.6369 58.7676 51.2801 58.5746 51.7175L58.5617 51.7561C58.343 52.3479 58.1886 52.914 58.0986 53.4286H46.5072C46.3271 52.6953 45.9797 51.9877 45.478 51.3059L45.4651 51.2801C45.0148 50.7269 44.3587 50.0708 43.5225 49.3375C42.4418 48.3469 41.4383 47.575 40.5507 47.0347C40.139 46.7774 39.4829 46.4429 38.5566 45.9926C37.8619 45.6195 37.3987 45.3622 37.1671 45.2336C36.9613 45.0921 36.8584 45.002 36.8198 44.9505C36.8327 44.2172 36.987 43.6254 37.2829 43.188C37.5917 42.7377 38.042 42.5319 38.6981 42.5319C39.277 42.5319 39.8431 42.6606 40.3705 42.905L40.4091 42.9179C40.7565 43.0465 41.2196 43.2909 41.7986 43.6512C42.6477 44.2172 43.278 44.4745 43.8055 44.4745H44.4616V44.4617Z"
                  fill="#555555"/>
            <path id="Vector_4"
                  d="M71.5426 8.01489H28.3546C22.5911 8.01489 17.9082 12.3504 17.9082 17.6894V42.9821C17.9082 48.3211 22.5911 52.6566 28.3546 52.6566H29.8727C31.2878 52.6566 32.4457 51.4987 32.4457 50.0836C32.4457 48.6684 31.2878 47.5106 29.8727 47.5106H28.3546C25.6015 47.5106 23.3758 45.4779 23.3758 42.9692V17.6894C23.3758 15.1807 25.6144 13.148 28.3546 13.148H71.5426C74.2957 13.148 76.5213 15.1807 76.5213 17.6894V42.9821C76.5213 45.4908 74.2828 47.5234 71.5426 47.5234H70.0245C68.6093 47.5234 67.4515 48.6813 67.4515 50.0965C67.4515 51.5116 68.6093 52.6695 70.0245 52.6695H71.5426C77.3061 52.6695 81.989 48.3339 81.989 42.9949V17.6894C81.989 12.3504 77.3061 8.01489 71.5426 8.01489Z"
                  fill="#555555"/>
        </g>
    </g>
    <defs>
        <clipPath id="clip0_2432_282">
            <rect width="100" height="69.7157" fill="white"/>
        </clipPath>
    </defs>
</svg>
