<svg width="100" height="70" viewBox="0 0 100 70" fill="none" xmlns="http://www.w3.org/2000/svg">
    <g id="Frame" clip-path="url(#clip0_2432_60)">
        <path id="Vector" fill-rule="evenodd" clip-rule="evenodd"
              d="M87.1349 34.8514L74.4371 56.8506H25.5628L12.865 34.8514L25.5628 12.865H74.4371L87.1349 34.8514Z"
              fill="#66CCFF"/>
        <path id="Vector_2" fill-rule="evenodd" clip-rule="evenodd"
              d="M25.5628 69.7157C25.1511 69.69 24.7523 69.69 24.3406 69.6514C23.5301 69.5742 22.7197 69.4198 21.9349 69.1882C20.7642 68.8409 19.632 68.3263 18.6028 67.6701C17.5736 67.014 16.6345 66.2035 15.8369 65.2772C15.1293 64.4539 15.0006 64.1966 14.4217 63.2832L1.7239 41.2839C1.22216 40.3191 1.06778 40.0875 0.707559 39.0583C0.308743 37.9004 0.0771719 36.6911 0.0128466 35.4689C-0.0514786 34.2468 0.0771719 33.0117 0.360203 31.8281C0.553179 31.0305 0.823344 30.2586 1.15784 29.5124C1.32508 29.1393 1.53092 28.792 1.7239 28.4189L14.4217 6.43252C15.0135 5.5191 15.1293 5.2618 15.8369 4.43844C16.6345 3.51216 17.5736 2.70166 18.6028 2.04554C19.632 1.38942 20.7642 0.874823 21.9349 0.527467C22.7197 0.295896 23.5173 0.141516 24.3406 0.0643252C24.7523 0.0257301 25.1511 0.0257301 25.5628 0H74.4371C75.5178 0.0514602 75.8008 0.0257301 76.8686 0.231571C78.0779 0.463142 79.2358 0.861958 80.3293 1.42802C81.4229 1.99408 82.4263 2.70166 83.314 3.55075C83.9058 4.11681 84.4461 4.73434 84.9093 5.40332C85.1409 5.73781 85.3467 6.08517 85.5654 6.43252L98.2632 28.4189C98.4562 28.7791 98.6492 29.1393 98.8293 29.5124C99.1638 30.2586 99.4339 31.0305 99.6269 31.8281C99.9099 33.0246 100.039 34.2468 99.9743 35.4689C99.9099 36.6911 99.6784 37.9133 99.2795 39.0583C98.9193 40.0875 98.7649 40.3191 98.2632 41.2839L85.5654 63.2703C84.9736 64.1837 84.8578 64.441 84.1502 65.2644C83.3526 66.1907 82.4135 67.0012 81.3843 67.6573C80.3551 68.3134 79.2229 68.828 78.0522 69.1754C77.2674 69.4069 76.4698 69.5613 75.6465 69.6385C75.2348 69.6771 74.836 69.6771 74.4243 69.7028C58.15 69.7157 41.85 69.7157 25.5628 69.7157Z"
              fill="#66CCFF"/>
        <path id="Vector_3"
              d="M80.651 37.4117C80.651 38.814 79.4931 39.9718 78.0908 39.9718H72.3787C70.4104 48.5657 63.6562 55.3198 55.0624 57.2753V62.9874C55.0624 64.3897 53.9045 65.5475 52.5022 65.5475H47.3819C45.9797 65.5475 44.8218 64.3897 44.8218 62.9874V57.2753C36.228 55.3198 29.4738 48.5657 27.5183 39.9718H21.8062C20.4039 39.9718 19.2461 38.814 19.2461 37.4117V32.2914C19.2461 30.8891 20.4039 29.7312 21.8062 29.7312H27.5183C29.4738 21.1374 36.228 14.3832 44.8218 12.4277V6.71566C44.8218 5.31337 45.9797 4.15552 47.3819 4.15552H52.5022C53.9045 4.15552 55.0624 5.31337 55.0624 6.71566V12.4277C63.6562 14.3832 70.4104 21.1374 72.3659 29.7312H78.0908C79.4931 29.7312 80.651 30.8891 80.651 32.2914V37.4117ZM62.7428 39.9718C61.3405 39.9718 60.1827 38.814 60.1827 37.4117V32.2914C60.1827 30.8891 61.3405 29.7312 62.7428 29.7312H67.1041C65.3801 23.9677 60.8259 19.4135 55.0752 17.7024V22.0637C55.0752 23.466 53.9174 24.6238 52.5151 24.6238H47.3948C45.9925 24.6238 44.8347 23.466 44.8347 22.0637V17.7024C39.0711 19.4263 34.5169 23.9806 32.8058 29.7312H37.1671C38.5694 29.7312 39.7272 30.8891 39.7272 32.2914V37.4117C39.7272 38.814 38.5694 39.9718 37.1671 39.9718H32.8058C34.5298 45.7354 39.084 50.2896 44.8347 52.0006V47.6394C44.8347 46.2371 45.9925 45.0792 47.3948 45.0792H52.5151C53.9174 45.0792 55.0752 46.2371 55.0752 47.6394V52.0006C60.8388 50.2767 65.393 45.7225 67.1041 39.9718H62.7428Z"
              fill="#555555"/>
    </g>
    <defs>
        <clipPath id="clip0_2432_60">
            <rect width="100" height="69.7157" fill="white"/>
        </clipPath>
    </defs>
</svg>
